<svg width="786" height="871" viewBox="0 0 786 871" fill="none" xmlns="http://www.w3.org/2000/svg">
<path d="M692.067 240.2C718.367 175.8 749.167 104.9 783.467 29.6C786.467 23 785.867 15.2 781.767 9.19998C777.867 3.39998 771.367 0 764.467 0H763.367L684.567 4C675.967 4.4 668.567 10 665.767 18.1C665.067 20.2 664.267 22.4 663.567 24.5C658.567 25.4 653.967 28.1 650.767 32.4C583.167 121.9 443.667 137.8 386.767 140.5C375.667 141 364.667 141.3 354.167 141.3C297.767 141.3 194.967 132.8 139.767 76.1C135.867 72.2 130.867 70.1 125.667 69.9C124.167 66.9 122.667 64 121.167 61.1C121.067 60.9 120.967 60.6 120.767 60.4C120.567 60.1 119.867 58.7 118.167 55.5C114.567 48.5 107.367 44.2 99.5674 44.2C98.8674 44.2 98.1674 44.2 97.4674 44.3L18.8674 52.2C11.4674 52.9 4.96735 57.6 1.86735 64.4C-1.23265 71.2 -0.432641 79.2 3.96736 85.2C4.46736 85.8 50.8674 150.8 99.9674 245.9C44.7674 313.9 14.3674 399.5 14.3674 487.2C14.3674 584.6 50.9674 677.4 117.367 748.5C183.467 819.3 272.867 862.1 369.167 869.2H369.367C373.167 869.5 377.167 869.7 381.667 869.9C382.567 869.9 383.567 870 384.567 870C389.467 870.2 393.567 870.2 397.367 870.2C401.267 870.2 405.267 870.1 410.167 870C411.167 870 412.067 869.9 413.067 869.9C417.567 869.7 421.567 869.5 425.367 869.2H425.567C521.867 862.2 611.267 819.3 677.367 748.5C743.867 677.4 780.467 584.5 780.467 487.1C780.467 398.1 749.267 311.3 692.467 242.8C692.067 242.4 691.767 242 691.367 241.7V241.6C691.567 241.1 691.867 240.7 692.067 240.2Z" fill="white"/>
<path d="M310.327 801.709C311.027 797.309 307.327 795.809 304.027 794.809C300.627 793.809 297.927 794.809 297.327 797.009C296.827 798.709 297.927 800.109 300.027 801.009L309.927 805.709C315.227 808.209 318.827 811.709 317.127 817.609C315.427 823.609 310.127 827.409 298.127 824.009C290.627 821.909 281.227 818.109 284.027 808.009L293.327 810.709C292.127 815.209 296.127 817.109 299.727 818.209C303.627 819.309 306.627 818.809 307.427 816.009C308.127 813.509 306.427 812.309 303.327 810.809L296.127 807.409C291.027 805.009 286.427 801.909 288.227 795.309C290.327 788.109 296.727 786.709 306.327 789.409C312.627 791.209 321.627 795.009 319.627 804.309L310.327 801.709Z" fill="white"/>
<path d="M310.327 801.709C311.027 797.309 307.327 795.809 304.027 794.809C300.627 793.809 297.927 794.809 297.327 797.009C296.827 798.709 297.927 800.109 300.027 801.009L309.927 805.709C315.227 808.209 318.827 811.709 317.127 817.609C315.427 823.609 310.127 827.409 298.127 824.009C290.627 821.909 281.227 818.109 284.027 808.009L293.327 810.709C292.127 815.209 296.127 817.109 299.727 818.209C303.627 819.309 306.627 818.809 307.427 816.009C308.127 813.509 306.427 812.309 303.327 810.809L296.127 807.409C291.027 805.009 286.427 801.909 288.227 795.309C290.327 788.109 296.727 786.709 306.327 789.409C312.627 791.209 321.627 795.009 319.627 804.309L310.327 801.709Z" stroke="white" stroke-width="2.835" stroke-miterlimit="10" stroke-linejoin="bevel"/>
<path d="M341.72 789.404L351.12 791.004L343.72 796.604L336.72 795.404L341.72 789.404ZM327.02 795.904L356.32 800.804L355.22 807.104L334.42 803.604L333.32 810.504L353.02 813.804L352.02 819.904L332.32 816.604L331.02 824.204L352.02 827.704L350.92 834.004L321.42 829.104L327.02 795.904Z" fill="white"/>
<path d="M341.72 789.404L351.12 791.004L343.72 796.604L336.72 795.404L341.72 789.404ZM327.02 795.904L356.32 800.804L355.22 807.104L334.42 803.604L333.32 810.504L353.02 813.804L352.02 819.904L332.32 816.604L331.02 824.204L352.02 827.704L350.92 834.004L321.42 829.104L327.02 795.904Z" stroke="white" stroke-width="2.835" stroke-miterlimit="10" stroke-linejoin="bevel"/>
<path d="M368.623 816.657L380.023 817.257C381.923 817.357 384.223 816.357 384.423 813.157C384.623 809.857 382.123 808.857 380.023 808.757L369.023 808.157L368.623 816.657ZM360.823 801.357L383.923 802.557C392.723 803.057 393.923 808.757 393.723 812.257C393.523 816.357 391.823 818.957 388.123 820.057V820.157C391.923 820.957 392.223 826.057 392.023 829.357C391.923 830.957 391.823 834.957 393.323 836.757L383.923 836.257C383.223 834.657 383.223 833.257 383.423 829.757C383.623 825.057 381.823 823.757 379.123 823.657L368.423 823.057L367.823 835.357L359.223 834.857L360.823 801.357Z" fill="white"/>
<path d="M368.623 816.657L380.023 817.257C381.923 817.357 384.223 816.357 384.423 813.157C384.623 809.857 382.123 808.857 380.023 808.757L369.023 808.157L368.623 816.657ZM360.823 801.357L383.923 802.557C392.723 803.057 393.923 808.757 393.723 812.257C393.523 816.357 391.823 818.957 388.123 820.057V820.157C391.923 820.957 392.223 826.057 392.023 829.357C391.923 830.957 391.823 834.957 393.323 836.757L383.923 836.257C383.223 834.657 383.223 833.257 383.423 829.757C383.623 825.057 381.823 823.757 379.123 823.657L368.423 823.057L367.823 835.357L359.223 834.857L360.823 801.357Z" stroke="white" stroke-width="2.835" stroke-miterlimit="10" stroke-linejoin="bevel"/>
<path d="M398.67 802.62L407.27 802.32L408.27 836.02L399.67 836.32L398.67 802.62Z" fill="white"/>
<path d="M398.67 802.62L407.27 802.32L408.27 836.02L399.67 836.32L398.67 802.62Z" stroke="white" stroke-width="2.835" stroke-miterlimit="10" stroke-linejoin="bevel"/>
<path d="M413.455 802.406L443.055 799.206L443.755 805.606L422.755 807.906L423.455 814.806L443.355 812.706L444.055 818.806L424.155 820.906L424.955 828.606L446.055 826.306L446.755 832.706L417.055 835.906L413.455 802.406Z" fill="white"/>
<path d="M413.455 802.406L443.055 799.206L443.755 805.606L422.755 807.906L423.455 814.806L443.355 812.706L444.055 818.806L424.155 820.906L424.955 828.606L446.055 826.306L446.755 832.706L417.055 835.906L413.455 802.406Z" stroke="white" stroke-width="2.835" stroke-miterlimit="10" stroke-linejoin="bevel"/>
<path d="M481.005 797.878L479.805 812.078L489.405 809.378L481.005 797.878ZM493.305 814.678L479.205 818.678L478.605 826.078L469.605 828.578L473.905 792.378L483.905 789.578L506.505 818.178L497.505 820.678L493.305 814.678Z" fill="white"/>
<path d="M481.005 797.878L479.805 812.078L489.405 809.378L481.005 797.878ZM493.305 814.678L479.205 818.678L478.605 826.078L469.605 828.578L473.905 792.378L483.905 789.578L506.505 818.178L497.505 820.678L493.305 814.678Z" stroke="white" stroke-width="2.835" stroke-miterlimit="10" stroke-linejoin="bevel"/>
<path d="M232.745 490.85C279.845 549.25 321.845 613.85 321.845 689.85C321.845 736.35 306.145 795.35 293.845 834.05C326.645 843.85 361.345 849.15 397.345 849.15C433.245 849.15 467.845 843.85 500.545 834.15C488.345 795.45 472.545 736.45 472.545 689.85C472.545 613.85 514.645 549.25 561.645 490.85L397.245 190.85L232.745 490.85ZM283.245 485.75C283.245 422.85 334.245 371.75 397.145 371.75C460.045 371.75 511.045 422.75 511.045 485.75C511.045 548.65 460.045 599.65 397.145 599.65C334.245 599.65 283.245 548.65 283.245 485.75Z" fill="url(#paint0_linear_4_308)"/>
<path d="M387.745 161.45C228.045 169.05 155.145 122.05 124.745 90.75C179.445 199.65 220.045 305.65 245.345 406.05C248.145 416.95 250.645 427.75 253.045 438.55L390.745 187.35L397.245 175.45L403.745 187.35L544.445 443.95C566.645 356.85 604.245 231.95 667.545 44.95C640.445 80.75 564.545 153.05 387.745 161.45Z" fill="url(#paint1_linear_4_308)"/>
<path d="M479.945 689.85C479.945 711.95 483.645 737.05 488.845 761.55C501.645 757.25 514.045 752.15 525.945 746.25C518.745 710.05 512.845 670.95 512.845 639.65C512.845 620.05 513.845 597.05 518.945 563.65C496.345 601.75 479.945 643.85 479.945 689.85Z" fill="url(#paint2_linear_4_308)"/>
<path d="M277.046 651.75C276.646 688.45 273.746 720.05 269.646 746.65C281.246 752.35 293.246 757.35 305.546 761.45C310.746 736.95 314.346 711.95 314.346 689.85C314.346 657.85 308.446 618.05 272.646 559.55C275.946 591.15 277.346 621.95 277.046 651.75Z" fill="url(#paint3_linear_4_308)"/>
<path d="M685.645 24.85C616.245 228.35 575.345 363.35 551.945 457.75L568.145 487.35L570.545 491.75L567.445 495.65C556.045 509.75 544.645 524.65 533.945 540.35C526.245 582.75 523.545 613.85 523.545 639.75C523.545 669.05 529.045 706.25 535.945 741.15C545.845 735.75 555.345 729.65 564.545 723.15C559.645 701.65 555.945 679.95 554.945 660.15C553.145 636.15 554.145 616.55 555.945 601.95C560.745 560.85 578.345 478.35 636.645 324.05L638.845 318.15C647.045 296.75 655.745 274.25 664.945 251.55L672.745 232.25V232.35C697.745 171.05 727.945 101.05 764.545 20.95L685.645 24.85Z" fill="url(#paint4_linear_4_308)"/>
<path d="M20.9453 72.8501C20.9453 72.8501 68.1453 138.45 118.645 236.35L118.745 236.25L123.145 245.05C134.845 268.15 146.645 292.85 158.045 318.75L159.545 322.25C212.245 443.55 254.945 591.65 232.945 724.95C241.545 730.95 250.445 736.45 259.645 741.45C263.445 715.75 266.145 685.55 266.445 650.75C266.745 614.95 264.545 577.85 259.745 539.55C250.445 525.85 239.645 511.25 226.945 495.55L223.845 491.65L226.245 487.25L245.145 452.75C242.045 437.95 238.545 422.95 234.745 407.95C207.645 300.95 163.145 187.45 102.445 70.7501C101.945 69.8501 100.745 67.65 99.4453 65.05L20.9453 72.8501Z" fill="url(#paint5_linear_4_308)"/>
<path d="M294.145 465.25C282.845 522.15 319.745 577.55 376.745 588.85C433.645 600.15 489.045 563.25 500.345 506.25C511.645 449.35 474.645 393.95 417.745 382.65C410.845 381.25 403.945 380.65 397.145 380.65C347.945 380.65 304.045 415.25 294.145 465.25Z" fill="url(#paint6_linear_4_308)"/>
<path d="M475.014 516.14C474.914 515.04 475.114 513.94 475.614 513.04C478.314 508.54 484.814 495.94 486.814 477.34C486.814 477.14 487.214 476.44 487.514 476.34C488.414 476.04 489.214 475.74 489.914 475.44C490.914 484.94 490.514 494.54 488.714 503.84C486.114 517.04 480.614 529.64 472.614 540.44C476.014 530.24 475.414 520.24 475.014 516.14ZM437.414 566.34C437.014 566.54 436.414 566.64 435.714 566.44C429.814 564.14 421.814 557.04 418.514 554.04C418.214 553.84 418.314 553.34 418.414 553.24C431.614 538.04 438.714 523.84 440.514 519.84C440.714 519.44 441.014 519.24 441.414 519.24C445.214 519.24 458.614 518.94 472.314 515.84H472.414L472.514 515.94C474.114 529.24 470.714 539.44 469.114 543.24C468.814 544.04 468.214 544.94 468.014 545.14C465.714 547.84 456.714 557.44 437.414 566.34ZM436.314 569.94C436.814 569.44 437.414 568.84 438.214 568.54C438.714 568.34 446.014 564.94 454.014 559.64C448.314 564.04 442.114 567.74 435.614 570.74C435.914 570.44 436.114 570.24 436.314 569.94ZM371.914 554.44C372.014 554.34 372.414 554.24 373.514 554.44L373.814 554.54C377.114 555.24 382.414 556.04 389.214 556.44C398.014 556.94 406.714 556.44 414.914 555.14C415.214 555.04 415.514 555.04 415.714 555.14C415.914 555.14 416.014 555.24 416.114 555.34L416.214 555.54C424.314 563.54 431.514 567.44 434.214 568.74V568.94C432.714 570.64 431.014 572.24 429.114 573.64C413.11 579.461 395.815 580.775 379.114 577.44C372.414 576.04 365.714 573.94 359.414 571.14C357.914 569.94 356.714 568.74 355.614 567.44C355.514 567.34 355.514 567.24 355.414 567.24C360.414 564.94 369.314 556.84 371.914 554.44ZM318.214 513.34C319.814 513.94 321.914 514.54 324.614 515.04C333.114 516.74 344.314 517.54 347.714 517.74C347.814 517.74 347.914 517.84 348.014 518.04C350.814 524.74 359.114 540.64 369.914 552.74C369.914 552.74 369.914 552.84 369.714 553.04C359.914 562.14 355.214 564.54 353.614 565.04C353.514 565.04 353.114 565.14 352.614 565.04C352.514 565.04 352.414 565.04 352.314 564.94C341.614 561.24 329.014 548.84 324.014 543.74C323.214 542.74 322.514 541.74 321.814 540.74C319.414 533.74 318.114 527.34 317.714 521.84C317.514 517.44 317.914 514.64 318.214 513.34ZM310.414 497.24C312.714 504.34 315.214 509.94 316.014 511.44C316.014 511.54 316.114 512.04 316.014 512.24C314.714 520.34 316.114 528.44 317.614 534.14C306.514 515.94 302.014 494.54 304.814 473.34C305.314 473.54 305.814 473.64 306.114 473.74C305.914 480.34 307.414 488.14 310.414 497.24ZM325.314 436.64C325.314 436.84 325.114 437.44 325.014 437.54C312.614 452.04 307.714 467.04 306.414 471.64C305.914 471.44 305.514 471.24 305.014 471.14C305.214 469.94 305.414 468.84 305.614 467.64C308.814 451.84 315.914 437.14 326.414 425.04C325.514 428.64 325.114 432.54 325.314 436.64ZM395.714 394.54L394.714 412.74C394.714 413.04 394.614 413.84 394.014 414.04C382.214 419.04 369.714 426.84 358.814 436.14C358.414 436.44 358.314 436.54 357.914 436.54H357.714C354.514 436.04 346.314 435.04 338.414 435.04C334.214 435.04 330.714 435.34 328.014 435.94C327.914 433.74 328.014 426.64 330.714 420.44C345.714 405.14 365.714 395.54 386.714 393.14C388.814 393.24 391.014 393.54 393.014 393.94C393.814 394.14 394.614 394.24 395.414 394.54C395.614 394.44 395.714 394.54 395.714 394.54ZM465.514 436.64C465.514 437.14 465.314 437.34 465.214 437.44C460.714 436.64 455.714 436.24 450.414 436.24C444.814 436.24 440.114 436.64 437.314 436.94C436.414 437.04 435.714 437.04 435.314 437.14H435.014C434.614 437.14 434.214 437.14 433.914 437.04C432.814 436.84 432.214 436.34 432.114 436.24C425.814 430.44 419.014 425.24 411.814 420.94C406.014 417.44 401.414 415.34 399.414 414.44C398.914 414.24 398.614 414.04 398.414 414.04C397.514 413.54 397.414 412.74 397.414 412.74C397.414 411.94 398.214 397.34 398.514 395.54C398.714 394.34 399.514 394.14 399.614 394.14C401.214 393.84 404.014 393.34 407.514 393.24C410.414 393.54 413.014 393.94 415.614 394.44C434.114 398.14 450.814 407.14 464.014 420.64C464.814 422.74 465.414 425.24 465.714 427.94C465.914 431.94 465.614 435.54 465.514 436.64ZM487.014 474.44H486.814C486.714 474.44 486.714 474.64 486.614 474.24C485.314 469.54 480.114 453.04 468.614 439.74C468.214 439.34 467.614 437.74 467.814 436.64C468.414 432.34 468.314 428.14 467.414 424.24C479.514 438.14 487.214 455.04 489.714 473.24C488.914 473.74 488.014 474.14 487.014 474.44ZM340.514 437.64C346.114 437.64 351.814 438.14 357.214 439.04L357.414 439.14C357.514 439.14 357.614 439.14 357.714 439.24C358.514 442.74 362.814 461.04 369.614 478.04C369.714 478.64 369.614 478.74 369.014 479.64C365.314 484.94 355.914 498.94 348.314 514.24C348.114 514.54 347.714 514.94 346.014 514.94H344.814C339.414 514.54 331.514 513.74 325.114 512.44C322.414 511.94 320.114 511.34 318.514 510.74C318.314 510.64 317.914 510.24 317.714 509.94C309.314 491.54 308.314 478.74 308.214 475.24C308.214 474.64 308.314 472.94 308.514 472.24C309.714 468.04 314.614 453.44 326.514 439.34C326.614 439.24 327.414 438.64 328.914 438.44C330.114 438.24 334.314 437.64 340.514 437.64ZM473.714 511.74C473.214 512.54 472.214 513.14 471.914 513.14C458.914 516.04 446.614 516.44 441.714 516.54C441.114 516.44 440.514 515.74 440.314 515.54C432.314 499.64 422.614 484.34 419.814 480.04C419.514 479.64 419.614 478.64 420.014 477.64C420.114 477.44 428.014 458.74 433.214 440.84C433.314 440.44 434.514 439.84 435.314 439.74C441.114 439.04 446.514 438.74 451.414 438.74C458.214 438.74 462.514 439.34 464.414 439.74L464.514 439.14L464.614 439.84C465.314 439.94 466.314 440.74 466.614 441.14C477.714 453.94 482.814 469.74 484.114 474.34C484.414 475.24 484.314 477.54 484.214 478.44C482.314 495.74 476.214 507.44 473.714 511.74ZM371.214 480.94C371.614 480.44 372.214 480.04 372.914 480.04H376.014C382.214 480.04 403.314 480.04 416.314 480.64H416.814C417.214 480.74 417.514 480.94 417.814 481.24C425.514 492.74 435.714 511.74 438.314 516.94C438.614 517.54 438.514 518.64 438.414 518.84C431.514 534.54 419.814 548.14 416.414 551.84C416.014 552.24 415.414 552.54 415.214 552.54C409.014 553.54 402.714 554.04 396.214 554.04C386.014 554.04 378.014 552.74 374.114 552.04L373.814 551.94C372.914 551.74 371.814 551.04 371.614 550.74C359.014 537.04 351.114 518.74 350.114 516.34C356.214 502.74 368.714 484.44 371.214 480.94ZM397.714 416.44C413.514 423.54 426.614 434.94 430.314 438.24C430.714 438.64 430.814 439.94 430.714 440.34C426.314 455.64 419.414 472.24 417.514 476.94C417.314 477.54 416.314 477.94 415.914 477.94C402.914 477.44 382.014 477.34 375.914 477.34H373.114C372.314 477.14 371.614 476.34 371.514 476.14C365.814 461.64 361.914 446.14 360.514 440.24C360.214 439.04 361.114 437.44 361.514 437.14C376.414 424.74 389.614 418.54 394.614 416.44C395.214 416.14 396.314 416.14 397.214 416.34C397.414 416.34 397.614 416.44 397.714 416.44ZM478.614 431.34C464.014 409.64 441.914 394.84 416.314 389.74C410.014 388.44 403.514 387.84 397.114 387.84C350.614 387.84 310.314 421.04 301.214 466.64C290.714 519.64 325.214 571.24 378.114 581.74C384.414 583.04 390.914 583.64 397.314 583.64C443.814 583.64 484.214 550.44 493.214 504.84C498.314 479.24 493.114 453.14 478.614 431.34Z" fill="white"/>
<path d="M650.345 322.55C681.145 369.85 699.145 426.35 699.145 487.05C699.145 653.75 564.045 788.85 397.345 788.85C230.645 788.85 95.5454 653.75 95.5454 487.05C95.5454 425.75 113.945 368.65 145.345 321.05C135.745 299.35 125.945 278.65 116.145 258.95C65.6454 321.25 35.2454 400.55 35.2454 487.05C35.2454 687.05 197.345 849.15 397.345 849.15C597.345 849.15 759.445 687.05 759.445 487.05C759.445 399.25 728.245 318.85 676.245 256.15C666.845 279.65 658.245 301.75 650.345 322.55Z" fill="url(#paint7_linear_4_308)"/>
<path d="M109.845 487.05C109.845 579.75 153.745 662.15 221.845 714.65C222.845 707.45 223.745 700.05 224.445 692.65C165.845 643.35 128.645 569.55 128.645 487.05C128.645 440.55 140.445 396.85 161.245 358.65C160.145 356.05 159.145 353.45 158.045 350.85C156.145 346.15 154.145 341.45 152.145 336.75C125.345 380.55 109.845 431.95 109.845 487.05Z" fill="url(#paint8_linear_4_308)"/>
<path d="M635.545 362.15C635.545 362.25 635.445 362.35 635.445 362.45C654.945 399.65 666.145 442.05 666.145 487.05C666.145 569.25 629.145 642.85 570.945 692.15C572.045 699.05 573.445 706.15 574.945 713.15C641.845 660.55 684.945 578.85 684.945 487.05C684.945 432.95 669.945 382.45 644.045 339.25C641.145 347.05 638.245 354.65 635.545 362.15Z" fill="url(#paint9_linear_4_308)"/>
<path d="M314.322 801.709C315.022 797.309 311.322 795.809 308.022 794.809C304.622 793.809 301.922 794.809 301.322 797.009C300.822 798.709 301.922 800.109 304.022 801.009L313.922 805.709C319.222 808.209 322.822 811.709 321.122 817.609C319.422 823.609 314.122 827.409 302.122 824.009C294.622 821.909 285.222 818.109 288.022 808.009L297.322 810.709C296.122 815.209 300.122 817.109 303.722 818.209C307.622 819.309 310.622 818.809 311.422 816.009C312.122 813.509 310.422 812.309 307.322 810.809L300.122 807.409C295.022 805.009 290.422 801.909 292.222 795.309C294.322 788.109 300.722 786.709 310.322 789.409C316.622 791.209 325.622 795.009 323.622 804.309L314.322 801.709Z" fill="white"/>
<path d="M345.607 789.31L355.007 790.91L347.607 796.51L340.607 795.31L345.607 789.31ZM330.907 795.91L360.207 800.81L359.107 807.11L338.307 803.61L337.107 810.51L356.807 813.81L355.807 819.91L336.107 816.61L334.807 824.21L355.807 827.71L354.707 834.01L325.207 829.11L330.907 795.91Z" fill="white"/>
<path d="M372.619 816.657L384.019 817.257C385.919 817.357 388.219 816.357 388.419 813.157C388.619 809.857 386.119 808.857 384.019 808.757L373.019 808.157L372.619 816.657ZM364.719 801.357L387.819 802.557C396.619 803.057 397.819 808.757 397.619 812.257C397.419 816.357 395.719 818.957 392.019 820.057V820.157C395.819 820.957 396.119 826.057 395.919 829.357C395.819 830.957 395.719 834.957 397.219 836.757L387.819 836.257C387.119 834.657 387.119 833.257 387.319 829.757C387.519 825.057 385.719 823.757 383.019 823.657L372.319 823.057L371.719 835.357L363.119 834.857L364.719 801.357Z" fill="white"/>
<path d="M402.667 802.619L411.267 802.319L412.267 836.019L403.667 836.319L402.667 802.619Z" fill="white"/>
<path d="M417.349 802.406L446.949 799.206L447.649 805.606L426.649 807.906L427.349 814.806L447.249 812.706L447.949 818.806L428.049 820.906L428.849 828.606L449.949 826.306L450.649 832.706L420.949 835.906L417.349 802.406Z" fill="white"/>
<path d="M484.901 797.877L483.701 812.077L493.301 809.377L484.901 797.877ZM497.201 814.677L483.101 818.677L482.501 826.077L473.501 828.577L477.901 792.377L487.901 789.577L510.501 818.177L501.501 820.677L497.201 814.677Z" fill="white"/>
<defs>
<linearGradient id="paint0_linear_4_308" x1="232.826" y1="519.988" x2="561.617" y2="519.988" gradientUnits="userSpaceOnUse">
<stop stop-color="#AA9402"/>
<stop offset="0.5" stop-color="#DCBF03"/>
<stop offset="1" stop-color="#AA9402"/>
</linearGradient>
<linearGradient id="paint1_linear_4_308" x1="208.428" y1="393.791" x2="612.285" y2="-10.066" gradientUnits="userSpaceOnUse">
<stop stop-color="#7B7979"/>
<stop offset="0.561" stop-color="#E9E9E9"/>
<stop offset="1" stop-color="#7B7979"/>
</linearGradient>
<linearGradient id="paint2_linear_4_308" x1="452.298" y1="724.97" x2="566.262" y2="611.007" gradientUnits="userSpaceOnUse">
<stop stop-color="#7B7979"/>
<stop offset="1" stop-color="#C4C3C3"/>
</linearGradient>
<linearGradient id="paint3_linear_4_308" x1="236.393" y1="713.348" x2="331.458" y2="618.283" gradientUnits="userSpaceOnUse">
<stop stop-color="#7B7979"/>
<stop offset="1" stop-color="#C4C3C3"/>
</linearGradient>
<linearGradient id="paint4_linear_4_308" x1="396.786" y1="602.349" x2="871.254" y2="127.881" gradientUnits="userSpaceOnUse">
<stop stop-color="#7B7979"/>
<stop offset="0.561" stop-color="#E9E9E9"/>
<stop offset="1" stop-color="#7B7979"/>
</linearGradient>
<linearGradient id="paint5_linear_4_308" x1="27.7806" y1="519.92" x2="291.103" y2="256.598" gradientUnits="userSpaceOnUse">
<stop stop-color="#7B7979"/>
<stop offset="0.561" stop-color="#E9E9E9"/>
<stop offset="1" stop-color="#7B7979"/>
</linearGradient>
<linearGradient id="paint6_linear_4_308" x1="292.107" y1="485.74" x2="502.345" y2="485.74" gradientUnits="userSpaceOnUse">
<stop stop-color="#AA9402"/>
<stop offset="0.5" stop-color="#DCBF03"/>
<stop offset="1" stop-color="#AA9402"/>
</linearGradient>
<linearGradient id="paint7_linear_4_308" x1="35.3359" y1="552.636" x2="759.41" y2="552.636" gradientUnits="userSpaceOnUse">
<stop stop-color="#254AA5"/>
<stop offset="0.25" stop-color="#254AA5"/>
<stop offset="0.5" stop-color="#217CC9"/>
<stop offset="0.728" stop-color="#254AA5"/>
<stop offset="1" stop-color="#254AA5"/>
</linearGradient>
<linearGradient id="paint8_linear_4_308" x1="109.856" y1="525.728" x2="224.435" y2="525.728" gradientUnits="userSpaceOnUse">
<stop stop-color="#AA9402"/>
<stop offset="0.5" stop-color="#DCBF03"/>
<stop offset="1" stop-color="#DCBF03"/>
</linearGradient>
<linearGradient id="paint9_linear_4_308" x1="570.957" y1="526.218" x2="684.93" y2="526.218" gradientUnits="userSpaceOnUse">
<stop stop-color="#DCBF03"/>
<stop offset="0.5" stop-color="#DCBF03"/>
<stop offset="1" stop-color="#AA9402"/>
</linearGradient>
</defs>
</svg>
