<svg width="744" height="829" viewBox="0 0 744 829" fill="none" xmlns="http://www.w3.org/2000/svg">
<path d="M289.382 780.759C290.082 776.359 286.382 774.859 283.082 773.859C279.682 772.859 276.982 773.859 276.382 776.059C275.882 777.759 276.982 779.159 279.082 780.059L288.982 784.759C294.282 787.259 297.882 790.759 296.182 796.659C294.482 802.659 289.182 806.459 277.182 803.059C269.682 800.959 260.282 797.159 263.082 787.059L272.382 789.759C271.182 794.259 275.182 796.159 278.782 797.259C282.682 798.359 285.682 797.859 286.482 795.059C287.182 792.559 285.482 791.359 282.382 789.859L275.182 786.459C270.082 784.059 265.482 780.959 267.282 774.359C269.382 767.159 275.782 765.759 285.382 768.459C291.682 770.259 300.682 774.059 298.682 783.359L289.382 780.759Z" fill="white"/>
<path d="M289.382 780.759C290.082 776.359 286.382 774.859 283.082 773.859C279.682 772.859 276.982 773.859 276.382 776.059C275.882 777.759 276.982 779.159 279.082 780.059L288.982 784.759C294.282 787.259 297.882 790.759 296.182 796.659C294.482 802.659 289.182 806.459 277.182 803.059C269.682 800.959 260.282 797.159 263.082 787.059L272.382 789.759C271.182 794.259 275.182 796.159 278.782 797.259C282.682 798.359 285.682 797.859 286.482 795.059C287.182 792.559 285.482 791.359 282.382 789.859L275.182 786.459C270.082 784.059 265.482 780.959 267.282 774.359C269.382 767.159 275.782 765.759 285.382 768.459C291.682 770.259 300.682 774.059 298.682 783.359L289.382 780.759Z" stroke="white" stroke-width="2.835" stroke-miterlimit="10" stroke-linejoin="bevel"/>
<path d="M320.775 768.454L330.175 770.054L322.775 775.654L315.775 774.454L320.775 768.454ZM306.075 774.954L335.375 779.854L334.275 786.154L313.475 782.654L312.375 789.554L332.075 792.854L331.075 798.954L311.375 795.654L310.075 803.254L331.075 806.754L329.975 813.054L300.475 808.154L306.075 774.954Z" fill="white"/>
<path d="M320.775 768.454L330.175 770.054L322.775 775.654L315.775 774.454L320.775 768.454ZM306.075 774.954L335.375 779.854L334.275 786.154L313.475 782.654L312.375 789.554L332.075 792.854L331.075 798.954L311.375 795.654L310.075 803.254L331.075 806.754L329.975 813.054L300.475 808.154L306.075 774.954Z" stroke="white" stroke-width="2.835" stroke-miterlimit="10" stroke-linejoin="bevel"/>
<path d="M347.678 795.707L359.078 796.307C360.978 796.407 363.278 795.407 363.478 792.207C363.678 788.907 361.178 787.907 359.078 787.807L348.078 787.207L347.678 795.707ZM339.878 780.407L362.978 781.607C371.778 782.107 372.978 787.807 372.778 791.307C372.578 795.407 370.878 798.007 367.178 799.107V799.207C370.978 800.007 371.278 805.107 371.078 808.407C370.978 810.007 370.878 814.007 372.378 815.807L362.978 815.307C362.278 813.707 362.278 812.307 362.478 808.807C362.678 804.107 360.878 802.807 358.178 802.707L347.478 802.107L346.878 814.407L338.278 813.907L339.878 780.407Z" fill="white"/>
<path d="M347.678 795.707L359.078 796.307C360.978 796.407 363.278 795.407 363.478 792.207C363.678 788.907 361.178 787.907 359.078 787.807L348.078 787.207L347.678 795.707ZM339.878 780.407L362.978 781.607C371.778 782.107 372.978 787.807 372.778 791.307C372.578 795.407 370.878 798.007 367.178 799.107V799.207C370.978 800.007 371.278 805.107 371.078 808.407C370.978 810.007 370.878 814.007 372.378 815.807L362.978 815.307C362.278 813.707 362.278 812.307 362.478 808.807C362.678 804.107 360.878 802.807 358.178 802.707L347.478 802.107L346.878 814.407L338.278 813.907L339.878 780.407Z" stroke="white" stroke-width="2.835" stroke-miterlimit="10" stroke-linejoin="bevel"/>
<path d="M377.725 781.67L386.325 781.37L387.325 815.07L378.725 815.37L377.725 781.67Z" fill="white"/>
<path d="M377.725 781.67L386.325 781.37L387.325 815.07L378.725 815.37L377.725 781.67Z" stroke="white" stroke-width="2.835" stroke-miterlimit="10" stroke-linejoin="bevel"/>
<path d="M392.51 781.456L422.11 778.256L422.81 784.656L401.81 786.956L402.51 793.856L422.41 791.756L423.11 797.856L403.21 799.956L404.01 807.656L425.11 805.356L425.81 811.756L396.11 814.956L392.51 781.456Z" fill="white"/>
<path d="M392.51 781.456L422.11 778.256L422.81 784.656L401.81 786.956L402.51 793.856L422.41 791.756L423.11 797.856L403.21 799.956L404.01 807.656L425.11 805.356L425.81 811.756L396.11 814.956L392.51 781.456Z" stroke="white" stroke-width="2.835" stroke-miterlimit="10" stroke-linejoin="bevel"/>
<path d="M460.06 776.928L458.86 791.128L468.46 788.428L460.06 776.928ZM472.36 793.728L458.26 797.728L457.66 805.128L448.66 807.628L452.96 771.428L462.96 768.628L485.56 797.228L476.56 799.728L472.36 793.728Z" fill="white"/>
<path d="M460.06 776.928L458.86 791.128L468.46 788.428L460.06 776.928ZM472.36 793.728L458.26 797.728L457.66 805.128L448.66 807.628L452.96 771.428L462.96 768.628L485.56 797.228L476.56 799.728L472.36 793.728Z" stroke="white" stroke-width="2.835" stroke-miterlimit="10" stroke-linejoin="bevel"/>
<path d="M211.8 469.9C258.9 528.3 300.9 592.9 300.9 668.9C300.9 715.4 285.2 774.4 272.9 813.1C305.7 822.9 340.4 828.2 376.4 828.2C412.3 828.2 446.9 822.9 479.6 813.2C467.4 774.5 451.6 715.5 451.6 668.9C451.6 592.9 493.7 528.3 540.7 469.9L376.3 169.9L211.8 469.9ZM262.3 464.8C262.3 401.9 313.3 350.8 376.2 350.8C439.1 350.8 490.1 401.8 490.1 464.8C490.1 527.7 439.1 578.7 376.2 578.7C313.3 578.7 262.3 527.7 262.3 464.8Z" fill="url(#paint0_linear_1_62)"/>
<path d="M366.8 140.5C207.1 148.1 134.2 101.1 103.8 69.8C158.5 178.7 199.1 284.7 224.4 385.1C227.2 396 229.7 406.8 232.1 417.6L369.8 166.4L376.3 154.5L382.8 166.4L523.5 423C545.7 335.9 583.3 211 646.6 24C619.5 59.8 543.6 132.1 366.8 140.5Z" fill="url(#paint1_linear_1_62)"/>
<path d="M459 668.9C459 691 462.7 716.1 467.9 740.6C480.7 736.3 493.1 731.2 505 725.3C497.8 689.1 491.9 650 491.9 618.7C491.9 599.1 492.9 576.1 498 542.7C475.4 580.8 459 622.9 459 668.9Z" fill="url(#paint2_linear_1_62)"/>
<path d="M256.101 630.8C255.701 667.5 252.801 699.1 248.701 725.7C260.301 731.4 272.301 736.4 284.601 740.5C289.801 716 293.401 691 293.401 668.9C293.401 636.9 287.501 597.1 251.701 538.6C255.001 570.2 256.401 601 256.101 630.8Z" fill="url(#paint3_linear_1_62)"/>
<path d="M664.7 3.9C595.3 207.4 554.4 342.4 531 436.8L547.2 466.4L549.6 470.8L546.5 474.7C535.1 488.8 523.7 503.7 513 519.4C505.3 561.8 502.6 592.9 502.6 618.8C502.6 648.1 508.1 685.3 515 720.2C524.9 714.8 534.4 708.7 543.6 702.2C538.7 680.7 535 659 534 639.2C532.2 615.2 533.2 595.6 535 581C539.8 539.9 557.4 457.4 615.7 303.1L617.9 297.2C626.1 275.8 634.8 253.3 644 230.6L651.8 211.3V211.4C676.8 150.1 707 80.1 743.6 0L664.7 3.9Z" fill="url(#paint4_linear_1_62)"/>
<path d="M0 51.9001C0 51.9001 47.2 117.5 97.6997 215.4L97.7997 215.3L102.2 224.1C113.9 247.2 125.7 271.9 137.1 297.8L138.6 301.3C191.3 422.6 234 570.7 212 704C220.6 710 229.5 715.5 238.7 720.5C242.5 694.8 245.2 664.6 245.5 629.8C245.8 594 243.6 556.9 238.8 518.6C229.5 504.9 218.7 490.3 206 474.6L202.9 470.7L205.3 466.3L224.2 431.8C221.1 417 217.6 402 213.8 387C186.7 280 142.2 166.5 81.4997 49.8001C80.9997 48.9001 79.7997 46.7 78.5 44.1L0 51.9001Z" fill="url(#paint5_linear_1_62)"/>
<path d="M273.2 444.3C261.9 501.2 298.8 556.6 355.8 567.9C412.7 579.2 468.1 542.3 479.4 485.3C490.7 428.4 453.7 373 396.8 361.7C389.9 360.3 383 359.7 376.2 359.7C327 359.7 283.1 394.3 273.2 444.3Z" fill="url(#paint6_linear_1_62)"/>
<path d="M454.069 495.19C453.969 494.09 454.169 492.99 454.669 492.09C457.369 487.59 463.869 474.99 465.869 456.39C465.869 456.19 466.269 455.49 466.569 455.39C467.469 455.09 468.269 454.79 468.969 454.49C469.969 463.99 469.569 473.59 467.769 482.89C465.169 496.09 459.669 508.69 451.669 519.49C455.069 509.29 454.469 499.29 454.069 495.19ZM416.469 545.39C416.069 545.59 415.469 545.69 414.769 545.49C408.869 543.19 400.869 536.09 397.569 533.09C397.269 532.89 397.369 532.39 397.469 532.29C410.669 517.09 417.769 502.89 419.569 498.89C419.769 498.49 420.069 498.29 420.469 498.29C424.269 498.29 437.669 497.99 451.369 494.89H451.469L451.569 494.99C453.169 508.29 449.769 518.49 448.169 522.29C447.869 523.09 447.269 523.99 447.069 524.19C444.769 526.89 435.769 536.49 416.469 545.39ZM415.369 548.99C415.869 548.49 416.469 547.89 417.269 547.59C417.769 547.39 425.069 543.99 433.069 538.69C427.369 543.09 421.169 546.79 414.669 549.79C414.969 549.49 415.169 549.29 415.369 548.99ZM350.969 533.49C351.069 533.39 351.469 533.29 352.569 533.49L352.869 533.59C356.169 534.29 361.469 535.09 368.269 535.49C377.069 535.99 385.769 535.49 393.969 534.19C394.269 534.09 394.569 534.09 394.769 534.19C394.969 534.19 395.069 534.29 395.169 534.39L395.269 534.59C403.369 542.59 410.569 546.49 413.269 547.79V547.99C411.769 549.69 410.069 551.29 408.169 552.69C392.165 558.511 374.87 559.825 358.169 556.49C351.469 555.09 344.769 552.99 338.469 550.19C336.969 548.99 335.769 547.79 334.669 546.49C334.569 546.39 334.569 546.29 334.469 546.29C339.469 543.99 348.369 535.89 350.969 533.49ZM297.269 492.39C298.869 492.99 300.969 493.59 303.669 494.09C312.169 495.79 323.369 496.59 326.769 496.79C326.869 496.79 326.969 496.89 327.069 497.09C329.869 503.79 338.169 519.69 348.969 531.79C348.969 531.79 348.969 531.89 348.769 532.09C338.969 541.19 334.269 543.59 332.669 544.09C332.569 544.09 332.169 544.19 331.669 544.09C331.569 544.09 331.469 544.09 331.369 543.99C320.669 540.29 308.069 527.89 303.069 522.79C302.269 521.79 301.569 520.79 300.869 519.79C298.469 512.79 297.169 506.39 296.769 500.89C296.569 496.49 296.969 493.69 297.269 492.39ZM289.469 476.29C291.769 483.39 294.269 488.99 295.069 490.49C295.069 490.59 295.169 491.09 295.069 491.29C293.769 499.39 295.169 507.49 296.669 513.19C285.569 494.99 281.069 473.59 283.869 452.39C284.369 452.59 284.869 452.69 285.169 452.79C284.969 459.39 286.469 467.19 289.469 476.29ZM304.369 415.69C304.369 415.89 304.169 416.49 304.069 416.59C291.669 431.09 286.769 446.09 285.469 450.69C284.969 450.49 284.569 450.29 284.069 450.19C284.269 448.99 284.469 447.89 284.669 446.69C287.869 430.89 294.969 416.19 305.469 404.09C304.569 407.69 304.169 411.59 304.369 415.69ZM374.769 373.59L373.769 391.79C373.769 392.09 373.669 392.89 373.069 393.09C361.269 398.09 348.769 405.89 337.869 415.19C337.469 415.49 337.369 415.59 336.969 415.59H336.769C333.569 415.09 325.369 414.09 317.469 414.09C313.269 414.09 309.769 414.39 307.069 414.99C306.969 412.79 307.069 405.69 309.769 399.49C324.769 384.19 344.769 374.59 365.769 372.19C367.869 372.29 370.069 372.59 372.069 372.99C372.869 373.19 373.669 373.29 374.469 373.59C374.669 373.49 374.769 373.59 374.769 373.59ZM444.569 415.69C444.569 416.19 444.369 416.39 444.269 416.49C439.769 415.69 434.769 415.29 429.469 415.29C423.869 415.29 419.169 415.69 416.369 415.99C415.469 416.09 414.769 416.09 414.369 416.19H414.069C413.669 416.19 413.269 416.19 412.969 416.09C411.869 415.89 411.269 415.39 411.169 415.29C404.869 409.49 398.069 404.29 390.869 399.99C385.069 396.49 380.469 394.39 378.469 393.49C377.969 393.29 377.669 393.09 377.469 393.09C376.569 392.59 376.469 391.79 376.469 391.79C376.469 390.99 377.269 376.39 377.569 374.59C377.769 373.39 378.569 373.19 378.669 373.19C380.269 372.89 383.069 372.39 386.569 372.29C389.469 372.59 392.069 372.99 394.669 373.49C413.169 377.19 429.869 386.19 443.069 399.69C443.869 401.79 444.469 404.29 444.769 406.99C444.969 410.99 444.669 414.59 444.569 415.69ZM466.069 453.49H465.869C465.769 453.49 465.769 453.69 465.669 453.29C464.369 448.59 459.169 432.09 447.669 418.79C447.269 418.39 446.669 416.79 446.869 415.69C447.469 411.39 447.369 407.19 446.469 403.29C458.569 417.19 466.269 434.09 468.769 452.29C467.969 452.79 467.069 453.19 466.069 453.49ZM319.569 416.69C325.169 416.69 330.869 417.19 336.269 418.09L336.469 418.19C336.569 418.19 336.669 418.19 336.769 418.29C337.569 421.79 341.869 440.09 348.669 457.09C348.769 457.69 348.669 457.79 348.069 458.69C344.369 463.99 334.969 477.99 327.369 493.29C327.169 493.59 326.769 493.99 325.069 493.99H323.869C318.469 493.59 310.569 492.79 304.169 491.49C301.469 490.99 299.169 490.39 297.569 489.79C297.369 489.69 296.969 489.29 296.769 488.99C288.369 470.59 287.369 457.79 287.269 454.29C287.269 453.69 287.369 451.99 287.569 451.29C288.769 447.09 293.669 432.49 305.569 418.39C305.669 418.29 306.469 417.69 307.969 417.49C309.169 417.29 313.369 416.69 319.569 416.69ZM452.769 490.79C452.269 491.59 451.269 492.19 450.969 492.19C437.969 495.09 425.669 495.49 420.769 495.59C420.169 495.49 419.569 494.79 419.369 494.59C411.369 478.69 401.669 463.39 398.869 459.09C398.569 458.69 398.669 457.69 399.069 456.69C399.169 456.49 407.069 437.79 412.269 419.89C412.369 419.49 413.569 418.89 414.369 418.79C420.169 418.09 425.569 417.79 430.469 417.79C437.269 417.79 441.569 418.39 443.469 418.79L443.569 418.19L443.669 418.89C444.369 418.99 445.369 419.79 445.669 420.19C456.769 432.99 461.869 448.79 463.169 453.39C463.469 454.29 463.369 456.59 463.269 457.49C461.369 474.79 455.269 486.49 452.769 490.79ZM350.269 459.99C350.669 459.49 351.269 459.09 351.969 459.09H355.069C361.269 459.09 382.369 459.09 395.369 459.69H395.869C396.269 459.79 396.569 459.99 396.869 460.29C404.569 471.79 414.769 490.79 417.369 495.99C417.669 496.59 417.569 497.69 417.469 497.89C410.569 513.59 398.869 527.19 395.469 530.89C395.069 531.29 394.469 531.59 394.269 531.59C388.069 532.59 381.769 533.09 375.269 533.09C365.069 533.09 357.069 531.79 353.169 531.09L352.869 530.99C351.969 530.79 350.869 530.09 350.669 529.79C338.069 516.09 330.169 497.79 329.169 495.39C335.269 481.79 347.769 463.49 350.269 459.99ZM376.769 395.49C392.569 402.59 405.669 413.99 409.369 417.29C409.769 417.69 409.869 418.99 409.769 419.39C405.369 434.69 398.469 451.29 396.569 455.99C396.369 456.59 395.369 456.99 394.969 456.99C381.969 456.49 361.069 456.39 354.969 456.39H352.169C351.369 456.19 350.669 455.39 350.569 455.19C344.869 440.69 340.969 425.19 339.569 419.29C339.269 418.09 340.169 416.49 340.569 416.19C355.469 403.79 368.669 397.59 373.669 395.49C374.269 395.19 375.369 395.19 376.269 395.39C376.469 395.39 376.669 395.49 376.769 395.49ZM457.669 410.39C443.069 388.69 420.969 373.89 395.369 368.79C389.069 367.49 382.569 366.89 376.169 366.89C329.669 366.89 289.369 400.09 280.269 445.69C269.769 498.69 304.269 550.29 357.169 560.79C363.469 562.09 369.969 562.69 376.369 562.69C422.869 562.69 463.269 529.49 472.269 483.89C477.369 458.29 472.169 432.19 457.669 410.39Z" fill="white"/>
<path d="M629.4 301.6C660.2 348.9 678.2 405.4 678.2 466.1C678.2 632.8 543.1 767.9 376.4 767.9C209.7 767.9 74.6001 632.8 74.6001 466.1C74.6001 404.8 92.9997 347.7 124.4 300.1C114.8 278.4 105 257.7 95.1996 238C44.7 300.3 14.3 379.6 14.3 466.1C14.3 666.1 176.4 828.2 376.4 828.2C576.4 828.2 738.5 666.1 738.5 466.1C738.5 378.3 707.3 297.9 655.3 235.2C645.9 258.7 637.3 280.8 629.4 301.6Z" fill="url(#paint7_linear_1_62)"/>
<path d="M88.8997 466.1C88.8997 558.8 132.8 641.2 200.9 693.7C201.9 686.5 202.8 679.1 203.5 671.7C144.9 622.4 107.7 548.6 107.7 466.1C107.7 419.6 119.5 375.9 140.3 337.7C139.2 335.1 138.2 332.5 137.1 329.9C135.2 325.2 133.2 320.5 131.2 315.8C104.4 359.6 88.8997 411 88.8997 466.1Z" fill="url(#paint8_linear_1_62)"/>
<path d="M614.6 341.2C614.6 341.3 614.5 341.4 614.5 341.5C634 378.7 645.2 421.1 645.2 466.1C645.2 548.3 608.2 621.9 550 671.2C551.1 678.1 552.5 685.2 554 692.2C620.9 639.6 664 557.9 664 466.1C664 412 649 361.5 623.1 318.3C620.2 326.1 617.3 333.7 614.6 341.2Z" fill="url(#paint9_linear_1_62)"/>
<path d="M293.377 780.759C294.077 776.359 290.377 774.859 287.077 773.859C283.677 772.859 280.977 773.859 280.377 776.059C279.877 777.759 280.977 779.159 283.077 780.059L292.977 784.759C298.277 787.259 301.877 790.759 300.177 796.659C298.477 802.659 293.177 806.459 281.177 803.059C273.677 800.959 264.277 797.159 267.077 787.059L276.377 789.759C275.177 794.259 279.177 796.159 282.777 797.259C286.677 798.359 289.677 797.859 290.477 795.059C291.177 792.559 289.477 791.359 286.377 789.859L279.177 786.459C274.077 784.059 269.477 780.959 271.277 774.359C273.377 767.159 279.777 765.759 289.377 768.459C295.677 770.259 304.677 774.059 302.677 783.359L293.377 780.759Z" fill="white"/>
<path d="M324.662 768.36L334.062 769.96L326.662 775.56L319.662 774.36L324.662 768.36ZM309.962 774.96L339.262 779.86L338.162 786.16L317.362 782.66L316.162 789.56L335.862 792.86L334.862 798.96L315.162 795.66L313.862 803.26L334.862 806.76L333.762 813.06L304.262 808.16L309.962 774.96Z" fill="white"/>
<path d="M351.674 795.707L363.074 796.307C364.974 796.407 367.274 795.407 367.474 792.207C367.674 788.907 365.174 787.907 363.074 787.807L352.074 787.207L351.674 795.707ZM343.774 780.407L366.874 781.607C375.674 782.107 376.874 787.807 376.674 791.307C376.474 795.407 374.774 798.007 371.074 799.107V799.207C374.874 800.007 375.174 805.107 374.974 808.407C374.874 810.007 374.774 814.007 376.274 815.807L366.874 815.307C366.174 813.707 366.174 812.307 366.374 808.807C366.574 804.107 364.774 802.807 362.074 802.707L351.374 802.107L350.774 814.407L342.174 813.907L343.774 780.407Z" fill="white"/>
<path d="M381.722 781.669L390.322 781.369L391.322 815.069L382.722 815.369L381.722 781.669Z" fill="white"/>
<path d="M396.404 781.456L426.004 778.256L426.704 784.656L405.704 786.956L406.404 793.856L426.304 791.756L427.004 797.856L407.104 799.956L407.904 807.656L429.004 805.356L429.704 811.756L400.004 814.956L396.404 781.456Z" fill="white"/>
<path d="M463.956 776.927L462.756 791.127L472.356 788.427L463.956 776.927ZM476.256 793.727L462.156 797.727L461.556 805.127L452.556 807.627L456.956 771.427L466.956 768.627L489.556 797.227L480.556 799.727L476.256 793.727Z" fill="white"/>
<defs>
<linearGradient id="paint0_linear_1_62" x1="211.881" y1="499.038" x2="540.672" y2="499.038" gradientUnits="userSpaceOnUse">
<stop stop-color="#AA9402"/>
<stop offset="0.5" stop-color="#DCBF03"/>
<stop offset="1" stop-color="#AA9402"/>
</linearGradient>
<linearGradient id="paint1_linear_1_62" x1="187.483" y1="372.841" x2="591.34" y2="-31.016" gradientUnits="userSpaceOnUse">
<stop stop-color="#7B7979"/>
<stop offset="0.561" stop-color="#E9E9E9"/>
<stop offset="1" stop-color="#7B7979"/>
</linearGradient>
<linearGradient id="paint2_linear_1_62" x1="431.353" y1="704.02" x2="545.317" y2="590.057" gradientUnits="userSpaceOnUse">
<stop stop-color="#7B7979"/>
<stop offset="1" stop-color="#C4C3C3"/>
</linearGradient>
<linearGradient id="paint3_linear_1_62" x1="215.448" y1="692.398" x2="310.513" y2="597.333" gradientUnits="userSpaceOnUse">
<stop stop-color="#7B7979"/>
<stop offset="1" stop-color="#C4C3C3"/>
</linearGradient>
<linearGradient id="paint4_linear_1_62" x1="375.841" y1="581.399" x2="850.309" y2="106.931" gradientUnits="userSpaceOnUse">
<stop stop-color="#7B7979"/>
<stop offset="0.561" stop-color="#E9E9E9"/>
<stop offset="1" stop-color="#7B7979"/>
</linearGradient>
<linearGradient id="paint5_linear_1_62" x1="6.83528" y1="498.97" x2="270.158" y2="235.648" gradientUnits="userSpaceOnUse">
<stop stop-color="#7B7979"/>
<stop offset="0.561" stop-color="#E9E9E9"/>
<stop offset="1" stop-color="#7B7979"/>
</linearGradient>
<linearGradient id="paint6_linear_1_62" x1="271.162" y1="464.79" x2="481.4" y2="464.79" gradientUnits="userSpaceOnUse">
<stop stop-color="#AA9402"/>
<stop offset="0.5" stop-color="#DCBF03"/>
<stop offset="1" stop-color="#AA9402"/>
</linearGradient>
<linearGradient id="paint7_linear_1_62" x1="14.3905" y1="531.686" x2="738.465" y2="531.686" gradientUnits="userSpaceOnUse">
<stop stop-color="#254AA5"/>
<stop offset="0.25" stop-color="#254AA5"/>
<stop offset="0.5" stop-color="#217CC9"/>
<stop offset="0.728" stop-color="#254AA5"/>
<stop offset="1" stop-color="#254AA5"/>
</linearGradient>
<linearGradient id="paint8_linear_1_62" x1="88.9107" y1="504.778" x2="203.49" y2="504.778" gradientUnits="userSpaceOnUse">
<stop stop-color="#AA9402"/>
<stop offset="0.5" stop-color="#DCBF03"/>
<stop offset="1" stop-color="#DCBF03"/>
</linearGradient>
<linearGradient id="paint9_linear_1_62" x1="550.012" y1="505.268" x2="663.985" y2="505.268" gradientUnits="userSpaceOnUse">
<stop stop-color="#DCBF03"/>
<stop offset="0.5" stop-color="#DCBF03"/>
<stop offset="1" stop-color="#AA9402"/>
</linearGradient>
</defs>
</svg>
