<svg width="74" height="60" viewBox="0 0 74 60" fill="none" xmlns="http://www.w3.org/2000/svg">
<path d="M0.000999987 59.147H73.944V0H0L0.000999987 59.147Z" fill="#D10214"/>
<path d="M65.7208 21.0082C64.6308 21.0082 63.5854 21.4406 62.8139 22.2106C62.0424 22.9806 61.6079 24.0252 61.6058 25.1152C61.6063 26.2064 62.0401 27.2528 62.8117 28.0244C63.5833 28.796 64.6296 29.2297 65.7208 29.2302C66.8108 29.2281 67.8554 28.7936 68.6254 28.0221C69.3954 27.2506 69.8278 26.2052 69.8278 25.1152C69.826 24.0265 69.3927 22.983 68.6229 22.2132C67.8531 21.4433 66.8095 21.0101 65.7208 21.0082ZM60.9488 31.1422C60.9908 31.2872 60.8548 31.3822 60.5898 31.5862L60.4278 31.6722L60.4878 31.7822C60.5218 31.8422 60.4618 31.9532 60.3508 32.0052L60.1038 32.1332C59.9928 32.1842 59.8728 32.1752 59.8388 32.1072L59.7878 32.0052L59.4798 32.1582L59.5318 32.2612C59.5658 32.3292 59.4968 32.4312 59.3858 32.4832L59.1388 32.6032C59.0188 32.6532 58.8988 32.6372 58.8658 32.5682L58.8228 32.4742C57.8748 32.9182 56.8168 33.3882 55.7228 33.9002L55.7828 34.0452C55.8178 34.1052 55.7488 34.2072 55.6378 34.2672L55.3908 34.3782C55.2798 34.4292 55.1608 34.4122 55.1258 34.3442L55.0658 34.2082L54.7078 34.3782L54.7758 34.5152C54.8098 34.5922 54.7418 34.6942 54.6308 34.7452L54.3828 34.8562C54.2728 34.9082 54.1528 34.8992 54.1188 34.8222L54.0588 34.6862C53.5548 34.8902 53.0168 34.9672 52.6248 34.2332C52.4538 33.8922 52.4448 33.1062 52.3168 32.6882C52.2488 32.4662 51.9928 32.4322 51.9928 32.4322C47.1778 31.5102 45.5468 32.5342 42.4568 31.7742C41.4918 31.5352 40.9618 30.6392 39.7668 30.6302C37.1628 30.5532 36.3868 30.5882 33.5598 30.4772C33.5098 30.6436 33.4645 30.8113 33.4238 30.9802L23.4858 30.9302L24.9968 31.6802L25.4918 36.0602C25.4918 36.0602 25.0918 36.1802 24.9718 36.1972C25.0658 37.0772 25.1588 38.2542 25.2108 39.3132C25.2528 40.2692 25.3048 41.2682 25.2958 41.9092C25.2868 42.1052 25.2868 42.5742 25.0138 43.0872C24.8348 43.4282 24.5188 43.7102 24.2638 43.8972C24.1778 43.9662 23.7938 44.2222 23.3498 44.4872C22.8888 44.7522 22.3758 45.0252 22.1028 45.1612C22.1288 45.2812 22.2138 45.4012 22.2398 45.4942C16.1948 48.4142 8.70782 49.4132 6.28282 54.0572C6.00082 54.5952 5.01082 54.3142 4.98482 53.7332C4.97682 53.4682 4.97682 53.0332 4.99482 52.8032L4.89982 52.7932C4.82282 52.7932 4.76382 52.6832 4.77182 52.5632L4.78082 52.2902C4.78982 52.1622 4.85782 52.0682 4.93482 52.0682L5.03682 52.0772C5.07082 51.8042 5.12182 51.5392 5.19082 51.2832L5.09682 51.2492C5.02782 51.2232 5.00282 51.1042 5.04582 50.9842L5.13082 50.7282C5.18182 50.6082 5.26782 50.5402 5.34482 50.5662L5.43882 50.5912C5.86482 49.5842 6.70182 49.1402 7.08582 48.1922L7.02582 48.1672C6.94982 48.1412 6.92382 48.0212 6.96582 47.9022L7.05182 47.6462C7.10282 47.5352 7.19682 47.4582 7.26582 47.4842L7.33382 47.5012C7.39382 47.3642 7.46182 47.2112 7.53882 47.0662L7.45282 47.0062C7.38482 46.9632 7.38482 46.8442 7.45282 46.7412L7.59882 46.5112C7.66682 46.4082 7.77782 46.3572 7.83782 46.4002L7.87182 46.4172L7.91382 46.4262C7.93182 46.4262 7.93982 46.4172 7.95682 46.4092C7.99982 46.3662 8.04182 46.3232 8.08482 46.2892C8.47782 45.9822 8.96482 46.0332 9.36482 46.2712C9.74082 46.5022 11.2268 47.3472 12.6528 46.0582C15.0088 43.9492 17.7658 41.0722 19.8408 40.9782C19.2778 39.7582 18.3038 37.2222 18.1928 36.2832L17.4928 36.1382C17.1348 35.3612 16.2468 31.7582 15.9988 29.0512C15.9988 29.0512 15.7088 26.1312 15.9908 25.1072C15.8278 25.0902 15.5378 25.3292 15.4528 25.3292C15.0768 24.3992 16.3058 16.5352 17.5268 14.2472L19.3968 13.5052C19.2008 13.4792 17.8518 13.4192 14.2998 13.1292C12.3198 14.8792 10.0228 16.7752 8.86182 17.8072C8.66582 17.9532 8.33182 19.0712 8.33182 19.0712C8.33182 19.0712 7.74282 19.5912 7.20582 19.9672C6.47982 20.4802 4.72082 20.8642 4.34582 20.2672C4.25082 20.1212 4.26882 20.0532 4.35382 19.9672C4.62682 19.6862 5.65182 19.1912 6.00182 18.5422C5.44682 18.8232 4.81482 19.1222 4.31982 19.0712C4.10682 19.0622 4.00382 18.5332 4.27682 18.4392C5.01982 18.1232 5.61682 17.9872 6.05282 17.3642C6.47982 16.7742 6.99282 16.3742 7.67482 16.3562C7.67482 16.3562 10.9788 12.0452 12.9248 9.9962C13.4638 9.4322 14.4628 9.6202 14.4628 9.6202L14.6328 8.9632C14.6328 8.9632 21.3098 8.1692 24.4168 9.2022C24.3408 7.3062 25.1938 4.8042 28.1408 4.8042C29.6608 4.8042 31.8968 6.1442 32.1958 7.7742C32.2898 8.2792 31.9998 8.6122 31.8458 9.2442C31.5808 10.2082 31.9478 11.2672 31.8368 11.6002C31.7518 11.8812 31.4358 11.8562 31.1708 12.2312C30.8808 12.6332 30.5568 13.3842 30.5568 13.3842L30.1548 14.2892L28.0718 14.1352C27.3118 15.7752 25.7498 19.1302 25.2038 22.4422C26.8428 22.5872 34.2438 23.6552 34.2438 23.6552L34.4238 24.2612C34.4238 24.2612 37.5488 24.6362 40.1008 25.8492C40.6728 25.9852 42.1078 25.7722 43.0468 26.2072C43.1148 26.1652 43.2688 26.0112 43.3288 25.9682C46.6588 26.9932 49.4068 28.7342 52.6258 29.5112C52.6258 29.5112 54.1198 29.8792 54.6318 29.9812C55.8188 30.2112 56.5788 30.2632 57.2018 30.3142C58.2348 30.3912 58.8068 30.3742 59.5578 30.4162C60.0878 30.4512 60.7348 30.3662 60.9488 31.1422Z" fill="white"/>
</svg>
