<svg width="600" height="452" viewBox="0 0 600 452" fill="none" xmlns="http://www.w3.org/2000/svg">
<path d="M561.972 147.726C552.029 147.726 542.493 151.669 535.456 158.688C528.419 165.708 524.455 175.231 524.436 185.169C524.441 195.117 528.398 204.656 535.436 211.691C542.474 218.725 552.018 222.679 561.972 222.684C571.914 222.665 581.443 218.703 588.466 211.67C595.49 204.636 599.434 195.106 599.434 185.169C599.418 175.243 595.465 165.73 588.443 158.712C581.422 151.693 571.902 147.744 561.972 147.726ZM518.443 240.115C518.826 241.437 517.586 242.303 515.169 244.163L513.691 244.947L514.238 245.949C514.548 246.496 514.001 247.508 512.988 247.982L510.735 249.149C509.723 249.614 508.628 249.532 508.318 248.912L507.853 247.982L505.044 249.377L505.518 250.316C505.828 250.936 505.199 251.866 504.186 252.34L501.933 253.434C500.839 253.89 499.744 253.744 499.443 253.115L499.051 252.258C490.403 256.306 480.753 260.591 470.774 265.259L471.321 266.58C471.64 267.127 471.011 268.057 469.998 268.604L467.745 269.616C466.733 270.081 465.647 269.926 465.328 269.306L464.781 268.066L461.515 269.616L462.135 270.865C462.446 271.567 461.825 272.497 460.813 272.962L458.551 273.974C457.547 274.448 456.453 274.366 456.143 273.664L455.595 272.424C450.998 274.284 446.091 274.986 442.515 268.294C440.955 265.186 440.873 258.02 439.705 254.209C439.085 252.185 436.75 251.875 436.75 251.875C392.829 243.47 377.952 252.805 349.766 245.877C340.964 243.698 336.129 235.529 325.229 235.447C301.476 234.745 294.398 235.064 268.611 234.052C268.155 235.569 267.742 237.098 267.371 238.638L176.72 238.182L190.503 245.02L195.018 284.951C195.018 284.951 191.369 286.045 190.275 286.2C191.132 294.222 191.98 304.953 192.455 314.607C192.838 323.323 193.312 332.43 193.23 338.274C193.148 340.061 193.148 344.337 190.658 349.013C189.025 352.122 186.143 354.693 183.817 356.398C183.032 357.027 179.529 359.361 175.479 361.777C171.274 364.193 166.595 366.681 164.105 367.921C164.342 369.015 165.117 370.109 165.354 370.957C110.214 397.578 41.9207 406.685 19.8008 449.023C17.2285 453.928 8.19811 451.366 7.96095 446.069C7.88797 443.653 7.88797 439.688 8.05216 437.591L7.18561 437.5C6.48324 437.5 5.94507 436.497 6.01804 435.403L6.10013 432.914C6.18223 431.747 6.8025 430.89 7.50487 430.89L8.43527 430.972C8.7454 428.483 9.21061 426.067 9.84 423.734L8.98257 423.424C8.35317 423.187 8.12514 422.102 8.51737 421.008L9.2927 418.674C9.7579 417.58 10.5424 416.96 11.2447 417.197L12.1022 417.425C15.988 408.244 23.6228 404.197 27.1255 395.554L26.5782 395.326C25.8849 395.089 25.6478 393.995 26.0309 392.91L26.8153 390.576C27.2805 389.564 28.138 388.862 28.7674 389.099L29.3876 389.254C29.9349 388.005 30.5552 386.61 31.2576 385.289L30.4731 384.742C29.8528 384.35 29.8528 383.265 30.4731 382.326L31.8049 380.229C32.4251 379.29 33.4376 378.825 33.9849 379.217L34.2951 379.372L34.6782 379.454C34.8424 379.454 34.9153 379.372 35.0704 379.299C35.4626 378.907 35.8457 378.515 36.238 378.205C39.8228 375.406 44.265 375.871 47.9136 378.041C51.3434 380.147 64.8979 387.85 77.9054 376.099C99.3959 356.872 124.544 330.643 143.472 329.786C138.336 318.664 129.452 295.544 128.439 286.984L122.054 285.662C118.788 278.578 110.688 245.731 108.426 221.052C108.426 221.052 105.781 194.431 108.353 185.096C106.867 184.941 104.221 187.12 103.446 187.12C100.016 178.641 111.227 106.948 122.364 86.0887L139.422 79.3241C137.634 79.0871 125.329 78.5401 92.9287 75.8962C74.8679 91.8504 53.9155 109.136 43.3255 118.544C41.5376 119.875 38.491 130.067 38.491 130.067C38.491 130.067 33.1184 134.808 28.2201 138.236C21.5978 142.913 5.55284 146.414 2.13223 140.971C1.26568 139.64 1.42986 139.02 2.2052 138.236C4.6954 135.674 14.0451 131.161 17.2376 125.245C12.1751 127.807 6.41027 130.532 1.89507 130.067C-0.0478386 129.985 -0.987363 125.163 1.50284 124.306C8.2802 121.425 13.7258 120.185 17.7028 114.505C21.5978 109.127 26.2772 105.48 32.4981 105.316C32.4981 105.316 62.6358 66.0138 80.3864 47.3337C85.303 42.1919 94.4155 43.9059 94.4155 43.9059L95.9662 37.9162C95.9662 37.9162 156.871 30.6776 185.212 40.0951C184.519 22.8099 192.3 0 219.181 0C233.046 0 253.442 12.2163 256.169 27.0765C257.027 31.6804 254.381 34.7163 252.977 40.478C250.559 49.2665 253.907 58.921 252.895 61.9569C252.119 64.5186 249.237 64.2907 246.82 67.7095C244.174 71.3744 241.219 78.221 241.219 78.221L237.552 86.4716L218.552 85.0676C211.619 100.019 197.371 130.605 192.391 160.8C207.341 162.122 274.85 171.858 274.85 171.858L276.492 177.383C276.492 177.383 304.997 180.802 328.276 191.86C333.493 193.1 346.583 191.158 355.148 195.124C355.768 194.741 357.173 193.337 357.72 192.945C388.095 202.29 413.161 218.162 442.524 225.245C442.524 225.245 456.152 228.6 460.822 229.53C471.649 231.627 478.582 232.101 484.265 232.566C493.687 233.268 498.905 233.113 505.755 233.496C510.59 233.815 516.491 233.04 518.443 240.115Z" fill="white"/>
</svg>
