<svg width="1528" height="1653" viewBox="0 0 1528 1653" fill="none" xmlns="http://www.w3.org/2000/svg">
<path opacity="0.962" fill-rule="evenodd" clip-rule="evenodd" d="M739.6 1.10001C782.5 0.500005 825.2 2.50001 867.9 6.90001C893.8 9.10001 918.3 16.3 941.2 28.6C962.7 42.4 975.2 62.1 978.7 87.7C980.8 100.4 981.9 113.2 982 126C975.3 111.7 965.5 99.8 952.8 90.2C920.8 69.7 885.8 57.5 847.9 53.6C791.2 45.8 734.6 46.3 678 55.3C643.3 60 611.7 72.2 583.1 91.9C571.3 100.9 562.7 112.3 557.3 126C556.3 99.5 561.8 74.6 574 51C591.7 30.1 614.2 17 641.5 11.9C674.1 6 706.8 2.40001 739.6 1.10001Z" fill="#002A8B"/>
<path opacity="0.979" fill-rule="evenodd" clip-rule="evenodd" d="M191.6 144.3C240.9 144.1 287.5 155 331.5 176.8C316.2 177.1 301 176.8 285.7 176C162.4 176.1 114.1 236.6 140.8 357.6C159 431.7 182.8 503.9 212.4 574.1C267.9 705.7 330.9 833.4 401.5 957.2C400.9 957.7 400.4 958.3 399.8 958.9C370.4 944.3 344.6 924.8 322.3 900.6C236.4 786 159.2 665.6 90.8 539.1C70.6 500.3 51.7 460.9 34.2 420.8C16.5 381.5 5.1 340.4 0 297.6C3.1 218.2 43.6 170.7 121.6 155.2C145 150.3 168.3 146.7 191.6 144.3Z" fill="#002A8B"/>
<path opacity="0.976" fill-rule="evenodd" clip-rule="evenodd" d="M1137.7 192.7C1117.8 186.1 1097.8 180.5 1077.7 176C1176.2 145.1 1276.7 137 1379.2 151.8C1507.7 170.7 1552.9 242.7 1515 367.5C1494.8 424.3 1470.3 479.2 1441.7 532.4C1375.5 651 1303.9 766 1226.8 877.3C1158.8 976.1 1088.5 1073.3 1016.1 1168.8C1012.8 1167.5 1011.4 1165.3 1011.9 1162.1C1088.4 1031.8 1161.2 899.1 1230.1 764C1280.5 662.7 1324.9 558.8 1363.4 452.5C1379.2 408.1 1390.3 362.6 1396.7 315.9C1405.1 243 1373.8 198.8 1302.6 183.5C1267.1 178.2 1231.5 178.2 1196 183.5C1176.5 186.2 1157.1 189.2 1137.7 192.7Z" fill="#002B8A"/>
<path opacity="0.984" fill-rule="evenodd" clip-rule="evenodd" d="M1077.7 176C1097.8 180.5 1117.8 186 1137.7 192.7C1172.8 207.5 1202.5 229.7 1226.8 259.3C1245.9 286.8 1255 317.3 1254.3 350.9C1250.7 413.1 1240.4 474.2 1223.5 534.1C1173.3 721.7 1097.2 897.7 995.3 1062.1C983.4 1081.6 970.6 1100.4 957 1118.7C943.9 1108.4 931.4 1097.5 919.5 1086.2C981.9 921.4 1028.8 752.4 1060.3 579C1073.9 504.9 1081.4 430.2 1082.8 355C1083.2 330.7 1081.8 306.6 1078.6 282.5C1075.7 256.6 1064.8 235 1046.1 217.5C1035.4 204.9 1022.1 196.6 1006.1 192.5C902.2 163.8 824.1 196.5 772.1 290.8C733.8 344.8 681.3 374.5 614.7 379.9C600.3 381.4 585.9 382.3 571.4 382.4C572 331.3 573.1 280.2 574.7 229.2C597.7 245.7 622.1 259.9 648 271.7C657.2 275.2 666.7 277.9 676.3 280C690 282.6 702.7 280.3 714.6 273.3C722.7 265.2 725.7 255.5 723.8 244.1C719.1 223.6 710.8 204.7 698.8 187.5C690.5 175.6 681.9 163.9 673 152.5C781.5 147.8 889.8 151.5 997.8 163.3C1024.7 166.4 1051.3 170.5 1077.7 176Z" fill="#FEBA00"/>
<path opacity="0.986" fill-rule="evenodd" clip-rule="evenodd" d="M583 156C585.3 155.7 587.5 156 589.7 156.8C517.7 174.4 471.8 219.1 452.3 290.9C447.4 314.5 445.5 338.4 446.5 362.5C454.9 552.5 486.8 738.5 542.3 920.5C551.9 950.5 562.2 980.2 573.1 1009.6C522.9 1008.8 484.4 987.4 457.3 945.5C377.9 790.2 320.7 627 285.7 455.8C275.7 410.1 273 364 277.4 317.5C290.5 272.7 316.9 238 356.5 213.4C398.5 189.6 443.5 174 491.4 166.8C522.1 162.9 552.7 159.3 583 156Z" fill="#00A53D"/>
<path opacity="0.975" fill-rule="evenodd" clip-rule="evenodd" d="M1006.1 192.7C1022.1 196.8 1035.4 205.1 1046.1 217.7C997.3 240.7 964.8 277.9 948.7 329.3C942.5 356.8 944.4 383.7 954.5 410.1C953.9 410.9 953.4 411.8 952.8 412.6C923.2 394.8 892.1 380 859.5 368.5C808.4 352.5 789.8 370 803.7 421C816.8 447.2 833.2 471.1 852.8 492.6C797.3 494.3 741.8 494.8 686.2 494.3C719.1 384.5 785.1 301 884.4 243.6C923.7 222.7 964.2 205.8 1006.1 192.7Z" fill="#00A53D"/>
<path opacity="0.975" fill-rule="evenodd" clip-rule="evenodd" d="M368.1 967.2C438.1 1014.4 515.3 1043 599.6 1053C641.2 1057.2 682.8 1060.6 724.5 1063C812.1 1067.1 888.1 1098.2 952.7 1156.3C995.6 1198.6 1032.8 1245.3 1064.3 1296.2C1063.2 1297.3 1062.1 1297.3 1061 1296.2C1011.5 1244.6 951.5 1211.2 881.1 1196.3C865.1 1193 849 1190.2 832.8 1188C777.2 1183.4 721.7 1178.4 666.2 1173C617.7 1163.1 572.7 1144.8 531.3 1118C469.7 1075.7 415.3 1025.5 368.1 967.2Z" fill="#FEBB00"/>
<path opacity="0.972" fill-rule="evenodd" clip-rule="evenodd" d="M493.1 1138.8C493.8 1137.1 494.9 1136.8 496.4 1138C532.8 1167 573.3 1188.7 618 1203C639.9 1209.1 662.1 1213.6 684.6 1216.3C724.5 1220.5 764.5 1223.2 804.5 1224.6C893.7 1230.3 972 1261.9 1039.4 1319.5C1080.1 1356.9 1114.6 1399.1 1142.7 1446.1C1141.6 1447.2 1140.5 1447.2 1139.4 1446.1C1085.5 1381.9 1016.6 1344.7 932.8 1334.5C887.9 1330.3 842.9 1327 797.9 1324.5C697.1 1319.2 613.5 1279 547.2 1203.7C529.9 1181.4 511.9 1159.7 493.1 1138.8Z" fill="#00A53D"/>
<path opacity="0.98" fill-rule="evenodd" clip-rule="evenodd" d="M569.7 1265.4C571.5 1265.2 573.1 1265.4 574.7 1266.2C586.4 1279 598 1291.7 609.7 1304.5C572.9 1345 542.1 1389.7 517.3 1438.6C505.6 1462.9 501.1 1488.4 504 1515.2C507.6 1530.6 514.2 1544.5 524 1556.8C547.8 1582.5 575.8 1602.2 608.1 1615.9C646.3 1631.4 685.7 1642.5 726.4 1649.2C656.4 1653.2 586.4 1652.1 516.5 1645.9C471.3 1642.7 428 1632.1 386.6 1614.3C364.3 1604.3 350.7 1587.3 345.8 1563.5C342.5 1535.5 346.9 1508.9 359.1 1483.5C373.4 1452 392.3 1423.7 415.7 1398.5C462.9 1348.9 514.2 1304.4 569.7 1265.4Z" fill="#002A8B"/>
<path opacity="0.978" fill-rule="evenodd" clip-rule="evenodd" d="M1024.4 1407C1085.1 1426.1 1133.7 1461.6 1170.2 1513.6C1193.7 1552.7 1186.7 1585.2 1149.4 1611C1115.7 1627.7 1080.2 1638.3 1042.8 1642.6C967 1652.3 890.9 1655.1 814.6 1650.9C812.4 1649.8 812.4 1648.7 814.6 1647.6C872.2 1637.8 925.5 1617.3 974.5 1586C1014.5 1557.8 1032.9 1519.2 1029.5 1470.2C1029.3 1449 1027.6 1428 1024.4 1407Z" fill="#002A8B"/>
</svg>
