<svg width="41" height="46" viewBox="0 0 41 46" fill="none" xmlns="http://www.w3.org/2000/svg">
<path d="M3.6693 25.3613C3.6693 19.8897 6.3457 15.0332 10.4575 12.0223L9.3675 8.30981C3.734 11.9035 0 18.1953 0 25.3613C0 32.9481 4.1873 39.5529 10.3712 43.0063L11.6338 39.4881C6.8637 36.5958 3.6693 31.3401 3.6693 25.3613ZM31.0164 8.3206L29.9264 12.033C34.0382 15.044 36.7147 19.9005 36.7147 25.3721C36.7147 31.3509 33.5202 36.5958 28.7501 39.4989L30.0128 43.0171C36.1966 39.5637 40.384 32.9589 40.384 25.3721C40.384 18.1953 36.6391 11.9035 31.0164 8.3206Z" fill="#FF6900"/>
<path d="M16.4961 39.9631H13.9492L17.8775 28.9876L10.4849 3.83119L19.4639 0V26.6565L16.4961 39.9631Z" fill="black"/>
<path d="M22.2698 28.9876L26.1981 39.9631H23.6511L20.6833 26.6565V0L29.6623 3.83119L22.2698 28.9876Z" fill="black"/>
<path d="M11.9417 45.5859L13.2906 41.7979H26.8671L28.2161 45.5859H11.9417Z" fill="black"/>
<path d="M20.0789 29.2573L22.4639 39.963H17.6938L20.0789 29.2573Z" fill="black"/>
</svg>
