<svg xmlns="http://www.w3.org/2000/svg" viewBox="0 0 830.4 1170" xml:space="preserve"><path fill="#FFF" d="M407.7 286.1c-75.9 0-137.6 61.8-137.6 137.6s61.7 137.6 137.6 137.6 137.6-61.8 137.6-137.6-61.7-137.6-137.6-137.6"/><path fill="#963582" d="M116.7 180.8c-1.2 2.3-.3 5.2 2 6.4L264.6 272l.3.2c1.6.9 3.5.8 5-.3.5-.3.9-.7 1.2-1.2.2-.2.3-.5.4-.7 28.1-49.8 77.1-84.4 133.4-94.2.2 0 .4 0 .6-.1 2.4-.5 4-2.9 3.6-5.4l-.1-.3L378.1 4.1l-.1-.3c-.1-.7-.4-1.3-.8-1.9-1-1.4-2.6-2.1-4.3-1.9l-.4.1C264.7 19.6 171.1 85.7 116.7 180.8"/><path fill="#004AD1" d="M33.5 501.2a4.9 4.9 0 0 0 3.9 2.9c.8.1 1.6-.1 2.3-.4L197.1 443l.3-.1c1.7-.7 2.8-2.3 2.9-4.1 0-.6 0-1.1-.2-1.7-.1-.3-.2-.5-.3-.8-21.2-53.1-17.5-112.9 10-163 .1-.2.2-.3.3-.5 1.1-2.2.3-5-1.9-6.2l-.3-.1-148.6-79.8-.3-.1c-.6-.3-1.3-.5-2-.5-1.7-.1-3.3.8-4.2 2.2-.1.1-.1.2-.2.4C.4 284.9-6.6 399.3 33.5 501.2"/><path fill="#0091FF" d="M233.5 764.4c2.5.7 5.1-.8 5.8-3.4l50.2-161 .1-.4c.5-1.7-.1-3.6-1.4-4.8-.4-.4-.9-.7-1.5-.9-.2-.1-.5-.2-.8-.2-54.8-16.4-99.4-56.4-121.6-109.1-.1-.2-.1-.4-.2-.5-.3-.5-.6-1-1.1-1.5-1.3-1.2-3.3-1.5-4.9-.9l-.3.1L3.1 549l-.3.1c-.6.3-1.2.7-1.6 1.2-1.1 1.3-1.4 3.1-.9 4.7 0 .1.1.2.2.4 42.9 100.7 128.2 177.2 233 209"/><path fill="#00AB00" d="M562.4 772.3c2.1-1.6 2.6-4.5 1-6.6l-94-140-.2-.3c-1.4-2-4.1-2.5-6.2-1.3-.2.1-.5.3-.7.5-47.1 32.4-106.2 42.1-161.2 26.3-.2-.1-.4-.1-.5-.2-.6-.1-1.2-.2-1.8-.1-1.8.3-3.2 1.6-3.8 3.3l-.1.3L250 816.8v.3c-.2.7-.2 1.4-.1 2.1.3 1.7 1.5 3 3.1 3.6.1 0 .3.1.4.1 105.4 29.5 218.6 11 309-50.6"/><path fill="#FFE61E" d="M776.5 521c.1-2.6-2-4.8-4.6-4.9L603.8 503h-.4c-1.8-.1-3.5.9-4.3 2.4-.4.7-.6 1.6-.6 2.4-3.7 57.1-32.8 109.5-79.3 142.8-.2.1-.3.2-.5.3-.5.4-.9.8-1.2 1.4-.9 1.6-.8 3.5.3 5l.2.3 99.7 136 .2.2c.4.6 1 1 1.6 1.3 1.5.8 3.3.7 4.7-.2.1-.1.2-.2.3-.2 88.6-64.2 144.3-164.4 152-273.7"/><path fill="#FF7D00" d="M713 196.5c-1.3-1.1-3.1-1.5-4.8-.9-.7.3-1.4.7-1.9 1.4L590.2 319.4l-.3.3c-1.2 1.3-1.5 3.2-.8 4.9.2.5.5 1 .9 1.4.2.2.4.4.6.5 42 38.8 64.4 94.4 61 151.5v.6c0 .6.1 1.2.3 1.8.7 1.7 2.2 2.8 4 3h.3l168.5 8.2h.3c.7 0 1.4-.1 2-.4 1.6-.7 2.6-2.1 2.8-3.8v-.4c5.9-109.3-36.9-215.6-116.8-290.5"/><path fill="red" d="M418.1 45.7c-1.7.3-3.1 1.6-3.6 3.2-.2.8-.3 1.6-.1 2.3L439 218.1l.1.4c.3 1.8 1.6 3.2 3.3 3.7.5.2 1.1.2 1.7.2.3 0 .5-.1.8-.1 56.5-9 114 7.7 156.8 45.5l.4.4c.5.4 1 .7 1.6.9 1.7.5 3.6 0 4.8-1.4l.2-.2L719.1 140l.2-.2c.5-.5.8-1.2 1-1.8.4-1.6 0-3.4-1.2-4.6l-.3-.3C636.4 60.9 526.3 28.9 418.1 45.7"/><path d="M407.7 284.2c-76.9 0-139.6 62.6-139.6 139.5s62.6 139.5 139.5 139.5 139.5-62.6 139.5-139.5-62.4-139.5-139.4-139.5m101.4 218.2c2.1-5.7 2.8-12.3 3.5-17.4-2.8 2.7-5.9 5.3-9.1 7.6-8.9 6.6-19.1 11.2-29.9 13.6l-27-29.4-.4.3 19.6 34.6c-5.6 9.7-13.3 18.1-22.4 24.6-3.2 2.3-6.5 4.4-10 6.3 5.1.9 11.5 2.3 17.5 2.1-27.9 10-58.5 10-86.4 0 6 .3 12.5-1.1 17.6-2.1-3.5-1.9-6.8-3.9-10-6.3-9.1-6.5-16.8-14.9-22.4-24.6l19.5-34.7-.4-.3-27 29.4c-10.8-2.4-21-7-29.9-13.6-3.2-2.3-6.2-4.8-9.1-7.6.7 5.2 1.4 11.8 3.5 17.5-17.5-22.5-27-50.2-27-78.7 0-1.4.1-2.8.1-4.2 1.5 6 5 12 7.6 16.7.7-3.9 1.6-7.7 2.9-11.5 3.4-10.7 9.1-20.6 16.6-29l38.6 7.8.1-.4-36.1-16.5c-1-11 .2-22.1 3.7-32.6 1.2-3.8 2.7-7.4 4.4-11-5 2.4-11.5 5.2-16.4 9.4 17-25.5 42.6-44.1 72.1-52.3-5.6 3.3-10.4 8.8-14.3 12.8 3.9-.5 7.8-.8 11.8-.8 11.2-.1 22.3 2.2 32.5 6.7l4.5 39h.4l4.5-39c10.2-4.5 21.3-6.7 32.4-6.7 4 0 7.9.3 11.8.8-3.9-4-8.7-9.5-14.3-12.8 29.5 8.3 55 26.8 72 52.2-4.8-4.1-11.4-7-16.3-9.3 1.7 3.6 3.2 7.2 4.4 11 3.5 10.5 4.8 21.6 3.7 32.6l-36 16.5.1.4 38.6-7.9c7.5 8.4 13.2 18.3 16.5 29 1.2 3.8 2.2 7.6 2.9 11.5 2.5-4.7 6-10.6 7.5-16.6 0 1.4.1 2.7.1 4.1.4 28.7-9.1 56.3-26.6 78.8"/><path d="m351.4 405.4 21.5 66.3h69.7l21.6-66.3-56.4-41zM2.8 930v187.2h107.4v-42.5H51.4V930zM199.7 1006.3c-21.6 0-35.5 16.1-35.5 35.9 0 20.8 13.1 37.9 34.1 37.9 20.2 0 36.9-14.9 36.9-36.7 0-22-15.5-37.1-35.5-37.1m-81.4 36.6c0-41.8 30.9-78.7 72.5-78.7 18.2 0 29.6 6.1 43 18.3v-15.4h44.7v150H233v-14.7s-16.3 18.3-44.7 18.3c-41.6.2-70-29.7-70-77.8M412.7 1117.2H305.2V930h48.7v144.7h58.8zM478.1 1117.2h-45.2v-150h45.2v150zM428.5 929c-.4-15.1 11.5-27.7 26.6-28.1s27.7 11.5 28.1 26.6v.9c0 15.4-12.4 27.8-27.8 27.9h-.2c-14.8.1-26.7-11.9-26.7-27.3M573.2 1003.1c-21.2 0-31.6 17.4-31.6 35.9 0 19.3 11.4 35.2 31.4 35.2 22.6 0 34.8-18.1 34.8-35-.1-19.9-11.3-36.1-34.6-36.1m-75.6 36.2c0-40.6 25.8-75 65.2-75 19 0 31.8 6.1 44.7 19.8v-16.8h43.3v132.2c0 46.4-34.8 70.6-76.6 70.6-36.7 0-68.8-18.6-73.6-52.3h50.8c6.3 10.3 12.6 12.2 23.8 12.2 15.8 0 30.4-7.3 30.4-23.7.2-3.7.1-7.5-.2-11.2-8.8 7.8-25 17.3-42.8 17.3-38.8 0-65-32.3-65-73.1M751.6 1006.2c-21.7 0-35.5 16.1-35.5 35.9 0 20.8 13.1 37.9 34 37.9 20.2 0 37-14.9 37-36.7 0-21.9-15.5-37.1-35.5-37.1m-81.4 36.7c0-41.8 30.9-78.7 72.5-78.7 18.2 0 29.7 6.1 43 18.3v-15.4h44.8v150H785v-14.7s-16.3 18.3-44.7 18.3c-41.7.1-70.1-29.7-70.1-77.8"/></svg>