<svg width="831" height="837" viewBox="0 0 831 837" fill="none" xmlns="http://www.w3.org/2000/svg">
<path d="M407.634 286.134C331.734 286.134 270.034 347.934 270.034 423.734C270.034 499.534 331.734 561.334 407.634 561.334C483.534 561.334 545.234 499.534 545.234 423.734C545.234 347.934 483.534 286.134 407.634 286.134Z" fill="white"/>
<path d="M116.634 180.834C115.434 183.134 116.334 186.034 118.634 187.234L264.534 272.034L264.834 272.234C266.434 273.134 268.334 273.034 269.834 271.934C270.334 271.634 270.734 271.234 271.034 270.734C271.234 270.534 271.334 270.234 271.434 270.034C299.534 220.234 348.534 185.634 404.834 175.834C405.034 175.834 405.234 175.834 405.434 175.734C407.834 175.234 409.434 172.834 409.034 170.334L408.934 170.034L378.034 4.13361L377.934 3.83361C377.834 3.13361 377.534 2.53361 377.134 1.93361C376.134 0.533613 374.534 -0.166387 372.834 0.0336129L372.434 0.133613C264.634 19.6336 171.034 85.7336 116.634 180.834Z" fill="#963582"/>
<path d="M33.4344 501.234C33.7761 502.014 34.3156 502.693 34.9995 503.201C35.6835 503.71 36.4883 504.031 37.3344 504.134C38.1344 504.234 38.9344 504.034 39.6344 503.734L197.034 443.034L197.334 442.934C199.034 442.234 200.134 440.634 200.234 438.834C200.234 438.234 200.234 437.734 200.034 437.134C199.934 436.834 199.834 436.634 199.734 436.334C178.534 383.234 182.234 323.434 209.734 273.334C209.834 273.134 209.934 273.034 210.034 272.834C211.134 270.634 210.334 267.834 208.134 266.634L207.834 266.534L59.2344 186.734L58.9344 186.634C58.3344 186.334 57.6344 186.134 56.9344 186.134C55.2344 186.034 53.6344 186.934 52.7344 188.334C52.6344 188.434 52.6344 188.534 52.5344 188.734C0.334404 284.934 -6.66559 399.334 33.4344 501.234Z" fill="#004AD1"/>
<path d="M233.434 764.434C235.934 765.134 238.534 763.634 239.234 761.034L289.434 600.034L289.534 599.634C290.034 597.934 289.434 596.034 288.134 594.834C287.734 594.434 287.234 594.134 286.634 593.934C286.434 593.834 286.134 593.734 285.834 593.734C231.034 577.334 186.434 537.334 164.234 484.634C164.134 484.434 164.134 484.234 164.034 484.134C163.734 483.634 163.434 483.134 162.934 482.634C161.634 481.434 159.634 481.134 158.034 481.734L157.734 481.834L3.03437 549.034L2.73438 549.134C2.13437 549.434 1.53437 549.834 1.13437 550.334C0.034375 551.634 -0.265625 553.434 0.234375 555.034C0.234375 555.134 0.334375 555.234 0.434375 555.434C43.3344 656.134 128.634 732.634 233.434 764.434Z" fill="#0091FF"/>
<path d="M562.334 772.334C564.434 770.734 564.934 767.834 563.334 765.734L469.334 625.734L469.134 625.434C467.734 623.434 465.034 622.934 462.934 624.134C462.734 624.234 462.434 624.434 462.234 624.634C415.134 657.034 356.034 666.734 301.034 650.934C300.834 650.834 300.634 650.834 300.534 650.734C299.934 650.634 299.334 650.534 298.734 650.634C296.934 650.934 295.534 652.234 294.934 653.934L294.834 654.234L249.934 816.834V817.134C249.734 817.834 249.734 818.534 249.834 819.234C250.134 820.934 251.334 822.234 252.934 822.834C253.034 822.834 253.234 822.934 253.334 822.934C358.734 852.434 471.934 833.934 562.334 772.334Z" fill="#00AB00"/>
<path d="M776.434 521.034C776.534 518.434 774.434 516.234 771.834 516.134L603.734 503.034H603.334C601.534 502.934 599.834 503.934 599.034 505.434C598.634 506.134 598.434 507.034 598.434 507.834C594.734 564.934 565.634 617.334 519.134 650.634C518.934 650.734 518.834 650.834 518.634 650.934C518.134 651.334 517.734 651.734 517.434 652.334C516.534 653.934 516.634 655.834 517.734 657.334L517.934 657.634L617.634 793.634L617.834 793.834C618.234 794.434 618.834 794.834 619.434 795.134C620.934 795.934 622.734 795.834 624.134 794.934C624.234 794.834 624.334 794.734 624.434 794.734C713.034 730.534 768.734 630.334 776.434 521.034Z" fill="#FFE61E"/>
<path d="M712.934 196.534C711.634 195.434 709.834 195.034 708.134 195.634C707.434 195.934 706.734 196.334 706.234 197.034L590.134 319.434L589.834 319.734C588.634 321.034 588.334 322.934 589.034 324.634C589.234 325.134 589.534 325.634 589.934 326.034C590.134 326.234 590.334 326.434 590.534 326.534C632.534 365.334 654.934 420.934 651.534 478.034V478.634C651.534 479.234 651.634 479.834 651.834 480.434C652.534 482.134 654.034 483.234 655.834 483.434H656.134L824.634 491.634H824.934C825.634 491.634 826.334 491.534 826.934 491.234C828.534 490.534 829.534 489.134 829.734 487.434V487.034C835.634 377.734 792.834 271.434 712.934 196.534Z" fill="#FF7D00"/>
<path d="M418.034 45.7337C416.334 46.0337 414.934 47.3337 414.434 48.9337C414.234 49.7337 414.134 50.5337 414.334 51.2337L438.934 218.134L439.034 218.534C439.334 220.334 440.634 221.734 442.334 222.234C442.834 222.434 443.434 222.434 444.034 222.434C444.334 222.434 444.534 222.334 444.834 222.334C501.334 213.334 558.834 230.034 601.634 267.834L602.034 268.234C602.534 268.634 603.034 268.934 603.634 269.134C605.334 269.634 607.234 269.134 608.434 267.734L608.634 267.534L719.034 140.034L719.234 139.834C719.734 139.334 720.034 138.634 720.234 138.034C720.634 136.434 720.234 134.634 719.034 133.434L718.734 133.134C636.334 60.9337 526.234 28.9337 418.034 45.7337Z" fill="#FF0000"/>
<path d="M407.634 284.233C330.734 284.233 268.034 346.833 268.034 423.733C268.034 500.633 330.634 563.233 407.534 563.233C484.434 563.233 547.034 500.633 547.034 423.733C547.034 346.833 484.634 284.233 407.634 284.233ZM509.034 502.433C511.134 496.733 511.834 490.133 512.534 485.033C509.734 487.733 506.634 490.333 503.434 492.633C494.534 499.233 484.334 503.833 473.534 506.233L446.534 476.833L446.134 477.133L465.734 511.733C460.134 521.433 452.434 529.833 443.334 536.333C440.134 538.633 436.834 540.733 433.334 542.633C438.434 543.533 444.834 544.933 450.834 544.733C422.934 554.733 392.334 554.733 364.434 544.733C370.434 545.033 376.934 543.633 382.034 542.633C378.534 540.733 375.234 538.733 372.034 536.333C362.934 529.833 355.234 521.433 349.634 511.733L369.134 477.033L368.734 476.733L341.734 506.133C330.934 503.733 320.734 499.133 311.834 492.533C308.634 490.233 305.634 487.733 302.734 484.933C303.434 490.133 304.134 496.733 306.234 502.433C288.734 479.933 279.234 452.233 279.234 423.733C279.234 422.333 279.334 420.933 279.334 419.533C280.834 425.533 284.334 431.533 286.934 436.233C287.634 432.333 288.534 428.533 289.834 424.733C293.234 414.033 298.934 404.133 306.434 395.733L345.034 403.533L345.134 403.133L309.034 386.633C308.034 375.633 309.234 364.533 312.734 354.033C313.934 350.233 315.434 346.633 317.134 343.033C312.134 345.433 305.634 348.233 300.734 352.433C317.734 326.933 343.334 308.333 372.834 300.133C367.234 303.433 362.434 308.933 358.534 312.933C362.434 312.433 366.334 312.133 370.334 312.133C381.534 312.033 392.634 314.333 402.834 318.833L407.334 357.833H407.734L412.234 318.833C422.434 314.333 433.534 312.133 444.634 312.133C448.634 312.133 452.534 312.433 456.434 312.933C452.534 308.933 447.734 303.433 442.134 300.133C471.634 308.433 497.134 326.933 514.134 352.333C509.334 348.233 502.734 345.333 497.834 343.033C499.534 346.633 501.034 350.233 502.234 354.033C505.734 364.533 507.034 375.633 505.934 386.633L469.934 403.133L470.034 403.533L508.634 395.633C516.134 404.033 521.834 413.933 525.134 424.633C526.334 428.433 527.334 432.233 528.034 436.133C530.534 431.433 534.034 425.533 535.534 419.533C535.534 420.933 535.634 422.233 535.634 423.633C536.034 452.333 526.534 479.933 509.034 502.433Z" fill="black"/>
<path d="M351.934 409.034L407.934 368.034L462.934 409.034L442.434 474.034H371.934L351.934 409.034Z" fill="black" stroke="black"/>
</svg>
