<svg width="395" height="500" viewBox="0 0 395 500" fill="none" xmlns="http://www.w3.org/2000/svg">
<path d="M198.652 403.837V406.437C198.352 406.437 198.152 406.237 198.152 405.937L197.152 404.937C196.552 404.937 196.152 405.437 196.152 405.937L194.052 406.937H191.452C191.952 406.437 194.552 404.837 195.052 403.837L196.652 402.237H197.152C197.552 403.337 198.652 403.337 198.652 403.837ZM166.252 499.737L168.852 497.137H169.352C169.952 497.137 170.352 496.637 170.352 496.137V492.937L172.952 486.637V482.437H173.452L179.152 480.837C186.752 477.537 191.352 469.737 190.652 461.537V446.437L191.652 445.437H193.752C193.252 444.937 193.252 444.937 193.252 444.437V443.437C186.252 442.537 180.652 437.237 179.152 430.437L178.152 428.837H173.952C173.952 429.337 173.952 429.837 173.452 429.837H172.052C171.552 429.837 171.052 427.237 171.052 424.637C171.052 422.037 171.552 419.937 172.052 419.937H173.652C174.152 419.937 174.152 419.937 174.152 420.437H176.752C176.752 420.837 176.952 421.237 177.252 421.437H178.252C178.252 420.437 178.752 419.337 178.752 418.337C178.752 417.337 179.252 418.337 179.252 417.837C181.252 413.037 184.952 409.137 189.652 406.937C189.152 406.937 189.652 406.437 190.152 405.937L191.752 404.337C191.752 403.837 192.752 402.737 193.852 402.237V399.137C194.352 398.037 194.552 396.737 194.352 395.537H193.852C193.352 395.537 192.852 396.537 192.252 397.637V398.637C192.252 399.137 192.252 399.137 191.752 399.137C191.252 399.137 191.252 397.537 191.752 396.537L193.352 393.937L195.452 392.937H195.952C195.952 392.437 195.452 392.437 195.452 391.937C195.452 391.337 195.952 390.937 196.452 390.937C197.452 390.937 197.452 391.437 197.452 391.937C197.452 392.437 197.452 392.937 196.952 392.937H198.552C199.752 393.337 201.152 393.137 202.152 392.437C200.852 393.037 199.452 393.437 197.952 393.437V394.437C197.552 395.237 197.352 396.137 197.452 397.037C197.452 397.537 197.452 397.537 197.952 398.037C198.452 398.537 198.952 400.637 198.952 401.137V404.237H199.452C206.052 405.237 211.452 409.937 213.552 416.237H214.052C214.552 417.237 214.552 418.337 215.052 419.337H216.052V418.337H218.652C218.652 417.837 218.652 417.837 219.152 417.837H220.752C221.252 417.837 221.252 419.937 221.252 422.537C221.252 425.137 221.252 427.737 220.752 427.737H219.152C218.652 427.737 218.652 427.237 218.652 426.737H216.052C215.752 426.737 215.552 426.537 215.552 426.237H214.552L213.552 427.837C211.952 434.637 206.352 439.837 199.452 440.837V441.837C199.452 442.337 199.452 442.337 198.952 442.837H201.052L202.052 443.837V458.437C201.352 466.637 205.952 474.437 213.552 477.737L219.252 479.337H219.752V481.937L222.352 488.237V491.337C222.352 491.937 222.852 492.337 223.352 492.337H223.852L226.452 494.937H241.052C213.752 408.537 221.052 62.837 221.552 0.336961C204.752 -0.763039 187.852 0.836961 171.452 5.03696C171.952 67.637 178.752 413.237 151.652 499.837H166.252V499.737Z" fill="url(#paint0_linear_4_365)"/>
<path d="M177.252 174.937C176.852 172.837 176.652 170.737 176.752 168.637C176.752 165.037 176.252 159.237 176.252 152.437C176.252 145.637 175.752 137.837 175.752 129.537V54.0369C175.752 47.2369 176.252 42.0369 176.252 37.8369C176.252 42.0369 176.252 47.2369 176.752 54.0369V76.9369C177.252 85.8369 177.252 94.6369 177.252 103.537V152.537C177.252 159.337 176.752 165.037 176.752 168.737L177.252 174.937Z" fill="url(#paint1_linear_4_365)"/>
<path d="M157.452 494.537L159.552 485.637C160.052 482.537 160.552 479.337 161.652 475.237C162.652 471.037 162.652 466.937 163.252 461.637C164.252 456.337 164.952 450.937 165.352 445.437C165.852 439.737 166.352 433.937 167.452 427.737L169.052 408.437C169.552 401.637 170.052 394.837 170.052 388.137C170.052 381.337 172.152 361.537 172.652 349.037C173.152 336.537 173.652 325.037 174.252 314.637C175.252 294.837 175.852 281.237 175.852 281.237V290.637C175.852 296.337 175.852 304.737 175.352 315.137C174.852 325.537 175.352 336.537 174.852 349.037C174.352 361.537 173.252 375.137 172.752 388.637L171.152 408.437C170.652 415.237 170.152 421.437 169.052 427.737C168.052 434.037 168.052 440.237 166.952 445.937C165.952 451.637 165.352 456.837 164.852 461.537C164.352 466.237 163.252 471.437 162.252 475.137C161.252 478.737 160.652 482.937 160.152 485.537C159.652 488.137 158.552 490.737 158.552 492.337L157.452 494.537Z" fill="url(#paint2_linear_4_365)"/>
<path d="M218.452 281.337C218.452 281.337 218.952 294.937 220.052 314.737C220.752 325.137 221.252 336.637 221.652 349.137C222.152 361.637 223.252 375.237 224.252 388.237C225.252 401.237 224.752 401.837 225.252 408.537L226.852 427.837C227.352 434.137 228.452 439.837 228.952 445.537C229.452 451.237 229.952 457.037 230.552 461.737C231.052 466.437 232.152 471.137 232.652 475.337C233.152 479.537 234.252 482.637 234.752 485.737L236.352 494.637V492.537C235.652 490.337 235.152 488.037 234.752 485.737C234.252 483.137 233.152 479.437 232.652 475.337C231.352 470.937 230.552 466.337 230.052 461.737C229.052 456.537 228.352 451.337 227.952 446.137C226.952 440.437 226.352 434.137 225.852 427.937C225.352 421.637 224.252 415.437 223.752 408.637L222.152 388.837C221.652 375.237 220.552 361.737 220.052 349.237C219.552 336.737 219.552 325.237 219.052 315.337V281.437H218.452V281.337Z" fill="url(#paint3_linear_4_365)"/>
<path d="M217.852 31.5371V37.8371C217.852 42.0371 218.352 47.2371 218.352 54.0371V129.637C217.852 137.937 217.852 145.837 217.852 152.537C217.852 159.337 217.352 165.037 217.352 168.737C217.052 170.837 216.852 172.937 216.852 175.037V168.737C216.852 165.137 216.352 159.337 216.352 152.537V76.9371C216.852 68.6371 216.852 60.7371 216.852 54.0371C216.852 47.3371 217.352 42.0371 217.352 37.8371C217.652 35.7371 217.852 33.6371 217.852 31.5371Z" fill="url(#paint4_linear_4_365)"/>
<path d="M80.7523 499.737H126.152C148.352 425.337 159.452 348.037 158.952 270.337C158.952 179.137 144.852 94.137 119.852 22.137H119.352C109.152 27.237 99.5523 33.337 90.6523 40.337C119.052 109.437 133.452 183.537 132.852 258.237C132.852 348.437 113.052 431.837 80.1523 499.137L80.7523 499.737Z" fill="url(#paint5_linear_4_365)"/>
<path d="M116.752 27.937C107.352 30.537 98.5523 34.737 90.6523 40.437L92.2523 44.637C119.852 112.537 133.652 185.137 132.952 258.437C132.952 346.537 114.152 427.837 82.8523 494.137H121.952C143.552 421.937 154.252 346.837 153.752 271.537C153.752 182.737 141.252 97.737 116.752 27.937Z" fill="url(#paint6_linear_4_365)"/>
<path d="M125.652 499.237L121.452 494.037C123.052 489.437 124.452 484.737 125.652 479.937C127.152 475.137 128.352 470.237 129.252 465.337C131.852 455.937 133.952 446.537 136.052 436.637L137.652 429.337L139.252 422.037C139.752 417.337 140.852 412.637 141.852 407.437C142.852 402.237 144.952 388.137 146.052 378.237C148.652 358.937 150.252 339.137 151.252 319.337C152.252 299.537 152.852 280.237 152.852 260.437C152.952 255.537 152.752 250.737 152.352 245.837V230.737C152.352 221.337 151.352 211.437 150.752 201.537C150.252 191.637 149.152 181.737 148.152 171.837L145.552 157.237L143.452 142.637L141.352 128.037L138.752 113.437L136.052 99.337L132.952 84.737L129.352 70.137C128.352 65.437 126.752 60.737 125.752 56.037C124.152 51.437 122.752 46.737 121.552 41.937L116.752 27.937L121.452 41.537L126.152 56.137C127.252 60.937 128.652 65.637 130.352 70.237C131.352 74.937 132.952 79.637 133.952 84.337L137.052 98.937L140.152 113.537L142.752 128.137L145.352 142.737L147.452 157.337L149.052 171.937L152.152 201.637C152.652 211.037 153.752 220.937 153.752 230.837V260.537C154.252 280.337 153.752 300.237 152.152 319.937C151.252 339.637 149.352 359.337 146.452 378.837C145.452 388.237 143.852 398.137 141.752 408.037C139.652 417.937 140.152 417.437 139.152 422.637L137.552 429.937L135.952 436.737L133.852 451.337C132.852 456.037 131.252 460.737 130.252 465.937C129.252 471.137 127.652 475.337 126.052 480.037C124.452 484.637 123.052 489.337 121.852 494.137L125.652 499.237Z" fill="url(#paint7_linear_4_365)"/>
<path d="M0.45225 499.737H51.0523C93.8523 437.137 119.852 353.237 119.852 260.937C120.452 190.337 104.252 120.637 72.4522 57.637H71.9522C66.1522 63.437 60.9522 69.737 56.3522 76.437C87.0522 129.837 103.052 190.537 102.752 252.137C102.752 351.737 67.8523 455.437 0.0522556 498.237C-0.0477444 499.237 -0.0477505 499.737 0.45225 499.737Z" fill="url(#paint8_linear_4_365)"/>
<path d="M70.3522 65.437C65.2522 68.637 60.4522 72.537 56.2522 76.937L57.8522 79.537C87.4522 132.437 102.852 192.037 102.652 252.637C102.652 348.537 70.3522 448.137 7.2522 494.037H48.4522C89.1522 433.537 114.152 352.737 114.152 263.637C114.152 190.637 99.0522 120.737 70.3522 65.437Z" fill="url(#paint9_linear_4_365)"/>
<path d="M70.3521 65.437C74.5521 73.737 78.6521 82.137 82.3521 90.937L84.9521 97.237C85.9521 99.337 86.5522 101.437 87.5522 104.037C88.1522 106.237 89.0522 108.337 90.1522 110.337L92.2522 117.137C95.3522 126.037 97.9522 134.837 100.552 143.737L103.652 157.337L106.752 171.437C107.252 176.137 108.352 180.337 108.852 185.037C109.752 189.737 110.452 194.437 110.952 199.137C112.552 208.237 113.552 217.537 114.052 226.737C114.552 236.137 115.052 245.537 115.052 254.937C115.552 264.337 115.552 273.737 115.052 283.137C114.152 301.837 112.252 320.437 109.352 338.937C106.252 357.437 101.852 375.737 96.3521 393.637C91.1521 411.537 84.3522 429.037 76.0522 445.737C68.1522 462.637 58.9521 478.837 48.4521 494.237C58.6521 478.637 67.5522 462.237 75.0522 445.237C82.9522 428.337 89.5521 410.937 94.8521 393.137C100.052 375.137 104.252 356.837 107.352 338.437C108.952 329.537 109.952 320.237 110.952 310.837C111.952 301.437 112.552 292.637 113.052 283.237C113.552 273.837 113.552 264.437 113.052 255.037C112.552 245.637 112.552 236.237 112.052 227.437C111.552 218.637 110.452 208.637 109.452 199.237C108.452 189.837 107.852 190.337 107.352 185.637C106.752 180.937 105.852 176.237 104.752 171.537L102.152 157.937L99.0522 144.337C96.9522 135.137 94.3522 126.137 91.2522 117.237L89.1522 110.937C88.6522 108.537 87.7522 106.237 86.5522 104.137C86.0522 102.037 84.9521 99.937 84.4521 97.337L81.8521 91.037C78.1521 82.137 74.5521 73.837 70.3521 65.437Z" fill="url(#paint10_linear_4_365)"/>
<path d="M176.152 8.63735V31.5373C176.152 38.8373 176.152 47.1373 176.652 55.5373H217.352C217.352 47.2373 217.852 38.8373 217.852 31.5373V8.63735C210.952 7.73735 203.952 7.43735 196.952 7.63735C190.052 7.43735 183.152 7.73735 176.152 8.63735Z" fill="url(#paint11_linear_4_365)"/>
<path d="M157.452 494.537C180.352 408.537 177.252 135.837 176.252 31.5373V8.63735C183.152 7.73735 190.152 7.43735 197.152 7.63735C204.152 7.43735 211.052 7.83735 218.052 8.63735V31.5373C216.452 135.837 213.352 408.537 236.252 494.537L223.752 493.537V492.537L221.152 486.237V482.637H220.652L214.952 481.037C207.352 477.737 202.752 469.937 203.452 461.737V446.637L202.452 445.637H200.352C200.852 445.137 200.852 445.137 200.852 444.637V443.637C207.752 442.537 213.352 437.437 214.952 430.637L215.952 429.037H216.952C216.952 429.337 217.152 429.537 217.452 429.537H220.052C220.052 430.037 220.052 430.537 220.552 430.537H222.152C222.652 430.537 222.652 427.937 222.652 425.337C222.652 422.737 222.652 420.637 222.152 420.637H220.552C220.052 420.637 220.052 420.637 220.052 421.137H217.452V422.137H216.452C215.952 421.137 215.952 420.037 215.452 419.037H214.952C212.852 412.737 207.452 408.037 200.852 407.037H200.352V403.937C200.352 403.437 200.352 402.937 199.352 400.837C198.352 398.737 198.852 400.337 198.852 399.837C198.852 398.937 198.952 398.037 199.352 397.237V396.237C200.752 396.237 202.252 395.837 203.552 395.237C202.452 395.937 201.152 396.137 199.952 395.737H198.052C198.552 395.737 198.552 395.237 198.552 394.737C198.552 394.237 198.552 393.737 197.552 393.737C196.952 393.737 196.552 394.237 196.552 394.737C196.552 395.237 197.052 395.237 197.052 395.737H196.552L194.452 396.737L192.852 399.337C192.352 400.337 192.352 401.937 192.852 401.937C193.352 401.937 193.352 401.937 193.352 401.437V400.437C193.852 399.437 194.352 398.337 194.952 398.337H195.452C195.652 399.537 195.452 400.837 194.952 401.937V405.037C193.952 405.537 192.852 406.637 192.852 407.137L191.252 408.737C190.752 409.237 190.252 409.737 190.752 409.737C186.052 412.037 182.352 415.937 180.352 420.637C180.352 421.137 180.352 421.137 179.852 421.137C179.352 421.137 179.352 423.237 179.352 424.237H178.352C178.052 423.937 177.852 423.637 177.852 423.237H175.252C175.252 422.737 175.252 422.737 174.752 422.737H173.052C172.552 422.737 172.052 424.837 172.052 427.437C172.052 430.037 172.552 432.637 173.052 432.637H174.652C175.152 432.637 175.152 432.137 175.152 431.637H179.352L180.352 433.237C181.852 440.137 187.452 445.337 194.452 446.237V447.237C194.452 447.737 194.452 447.737 194.952 448.237H192.852L191.852 449.237V463.837C192.552 472.037 187.952 479.837 180.352 483.137L174.652 484.737H174.152V487.337L171.552 493.637V494.637L157.452 494.537ZM197.052 402.237H196.552L194.952 403.837C194.452 404.837 191.852 406.437 191.352 406.937H193.952L196.052 405.937C196.052 405.337 196.552 404.937 197.052 404.937L198.052 405.937C198.052 406.237 198.252 406.437 198.552 406.437V403.837C198.652 403.337 197.552 403.337 197.052 402.237Z" fill="url(#paint12_linear_4_365)"/>
<path d="M313.352 499.737H267.952C245.752 425.337 234.652 348.037 235.152 270.337C235.152 179.137 249.252 94.137 274.252 22.137H274.752C284.952 27.237 294.552 33.337 303.452 40.337C276.352 102.937 261.252 177.937 261.252 258.237C261.252 348.437 280.552 431.837 313.952 499.137L313.352 499.737Z" fill="url(#paint13_linear_4_365)"/>
<path d="M277.352 27.937C286.652 30.437 295.252 34.637 302.852 40.437L301.252 44.637C274.152 112.637 260.452 185.237 261.152 258.437C261.152 346.537 279.352 427.837 311.252 494.137H272.152C250.552 421.937 239.852 346.837 240.352 271.537C240.352 182.737 252.852 97.737 277.352 27.937Z" fill="url(#paint14_linear_4_365)"/>
<path d="M272.152 494.037C271.152 489.337 269.552 484.637 268.552 479.937C267.552 475.237 265.952 470.037 264.352 465.337L258.052 436.637L256.452 429.337L254.852 422.037C253.852 417.337 253.252 412.637 252.252 407.437C251.252 402.237 249.152 388.137 248.052 378.237C245.452 358.937 243.352 339.137 242.352 319.337C241.352 299.537 240.752 280.237 241.352 260.437C241.252 255.537 241.452 250.737 241.852 245.837V230.737C241.852 220.937 242.352 211.237 243.452 201.537C243.952 191.637 245.052 181.737 246.052 171.837L248.152 157.237L249.752 142.637L252.352 128.037L254.952 113.437L257.552 99.3371L260.652 84.7371L264.252 70.1371C265.252 65.4371 266.852 60.7371 267.852 56.0371C268.852 51.3371 270.452 46.6371 272.052 41.9371L276.752 27.8371L271.552 41.4371C270.552 46.1371 268.952 50.8371 267.352 56.0371C265.752 61.2371 264.752 65.4371 263.152 70.1371C261.552 74.8371 260.552 79.5371 259.552 84.2371L256.452 98.8371L253.352 113.437L250.752 128.037L248.152 142.637L246.052 157.237L243.952 171.837C242.952 181.737 241.852 191.637 241.352 201.537C240.852 211.437 239.752 220.837 239.252 230.737V260.437C238.752 280.237 239.252 300.037 240.252 319.837C241.252 339.637 243.352 358.937 246.552 378.737C247.552 388.137 249.152 398.037 250.752 407.937L253.852 422.537L255.452 429.837L257.052 436.637L260.152 451.237C261.152 455.937 262.752 460.637 263.752 465.837C264.752 471.037 266.352 475.237 267.952 479.937C269.552 484.637 270.552 489.337 272.152 494.037Z" fill="url(#paint15_linear_4_365)"/>
<path d="M393.652 499.737H343.052C300.252 437.137 274.252 353.237 274.252 260.937C273.752 190.537 289.952 121.037 321.652 58.137H322.152C327.952 63.737 332.952 70.037 337.252 76.937H337.752C307.052 130.337 291.052 191.037 291.452 252.637C291.452 352.237 326.352 455.937 393.652 498.737C394.152 499.237 394.152 499.737 393.652 499.737Z" fill="url(#paint16_linear_4_365)"/>
<path d="M323.752 65.437C328.852 68.637 333.652 72.537 337.852 76.937L335.752 79.537C306.352 132.437 291.052 192.037 291.452 252.637C291.452 348.537 323.752 448.137 386.852 494.037H345.652C304.952 433.537 279.452 352.737 279.452 263.637C279.452 190.637 295.052 120.737 323.752 65.437Z" fill="url(#paint17_linear_4_365)"/>
<path d="M323.752 65.437C319.552 73.737 315.452 82.137 311.752 90.937L309.152 97.237C308.152 99.337 307.552 101.437 306.552 104.037L303.952 110.337L301.852 117.137C298.752 126.037 296.152 134.837 293.552 143.737L290.452 157.337L287.352 171.437C286.752 176.037 285.852 180.537 284.752 185.037C284.352 189.737 283.652 194.437 282.652 199.137C281.652 208.537 280.552 217.337 280.052 226.737C279.552 236.137 279.052 245.537 279.052 254.937C278.552 264.337 278.552 273.737 279.052 283.137C279.652 301.837 281.552 320.437 284.752 338.937C287.852 357.437 292.252 375.737 297.752 393.637C303.052 411.537 309.652 428.937 317.552 445.737C325.852 462.537 335.252 478.737 345.752 494.237C335.352 478.637 326.352 462.237 318.652 445.237C311.152 428.237 304.652 410.837 299.352 393.137C294.152 375.137 289.952 356.837 286.852 338.437C285.252 329.537 284.252 320.237 283.252 310.837C282.252 301.437 281.652 292.637 281.152 283.237C280.652 273.837 280.652 264.437 281.152 255.037C281.652 245.637 281.652 236.237 282.152 227.437C282.652 218.637 283.752 208.637 284.752 199.237C285.752 189.837 286.352 190.337 286.852 185.637C287.352 180.937 288.452 176.237 288.952 171.537L292.052 157.937L295.152 144.337C297.252 135.137 299.852 126.137 302.952 117.237L305.052 110.937C305.552 108.337 306.652 106.237 307.152 104.137C307.652 102.037 308.752 99.937 309.752 97.337L312.352 91.037C315.952 82.137 319.552 73.837 323.752 65.437Z" fill="url(#paint18_linear_4_365)"/>
<defs>
<linearGradient id="paint0_linear_4_365" x1="196.525" y1="499.762" x2="196.525" y2="3.10395" gradientUnits="userSpaceOnUse">
<stop stop-color="#E4AC52"/>
<stop offset="0.04" stop-color="#4F361C"/>
<stop offset="0.09" stop-color="#614726"/>
<stop offset="0.44" stop-color="#4F361C"/>
<stop offset="0.67" stop-color="#E4AC52"/>
<stop offset="0.83" stop-color="#745124"/>
<stop offset="0.93" stop-color="#4F361C"/>
<stop offset="1" stop-color="#E4AC52"/>
</linearGradient>
<linearGradient id="paint1_linear_4_365" x1="176.453" y1="175.104" x2="176.453" y2="31.7789" gradientUnits="userSpaceOnUse">
<stop offset="0.25" stop-color="#A57531"/>
<stop offset="0.79" stop-color="#FDE489"/>
<stop offset="1" stop-color="#745124"/>
</linearGradient>
<linearGradient id="paint2_linear_4_365" x1="166.547" y1="494.965" x2="166.547" y2="281.412" gradientUnits="userSpaceOnUse">
<stop offset="0.1" stop-color="#4F361C"/>
<stop offset="0.29" stop-color="#FDE489"/>
<stop offset="0.5" stop-color="#A57531"/>
<stop offset="0.67" stop-color="#E4AC52"/>
<stop offset="0.84" stop-color="#745124"/>
</linearGradient>
<linearGradient id="paint3_linear_4_365" x1="227.286" y1="494.965" x2="227.286" y2="281.412" gradientUnits="userSpaceOnUse">
<stop offset="0.1" stop-color="#4F361C"/>
<stop offset="0.31" stop-color="#A57531"/>
<stop offset="0.61" stop-color="#FDE489"/>
<stop offset="0.81" stop-color="#E4AC52"/>
<stop offset="0.97" stop-color="#745124"/>
</linearGradient>
<linearGradient id="paint4_linear_4_365" x1="217.38" y1="175.104" x2="217.38" y2="31.7271" gradientUnits="userSpaceOnUse">
<stop offset="0.12" stop-color="#A57531"/>
<stop offset="0.49" stop-color="#FDE489"/>
<stop offset="0.97" stop-color="#745124"/>
</linearGradient>
<linearGradient id="paint5_linear_4_365" x1="119.63" y1="499.762" x2="119.63" y2="21.665" gradientUnits="userSpaceOnUse">
<stop stop-color="#745124"/>
<stop offset="0.25" stop-color="#745124"/>
<stop offset="0.5" stop-color="#E4AC52"/>
<stop offset="0.75" stop-color="#745124"/>
<stop offset="1" stop-color="#E4AC52"/>
</linearGradient>
<linearGradient id="paint6_linear_4_365" x1="118.328" y1="494.027" x2="118.328" y2="27.921" gradientUnits="userSpaceOnUse">
<stop offset="0.13" stop-color="#4F361C"/>
<stop offset="0.67" stop-color="#E4AC52"/>
<stop offset="0.9" stop-color="#4F361C"/>
</linearGradient>
<linearGradient id="paint7_linear_4_365" x1="135.362" y1="500.179" x2="135.362" y2="21.039" gradientUnits="userSpaceOnUse">
<stop stop-color="#FDE489"/>
<stop offset="0.11" stop-color="#FAE187"/>
<stop offset="0.2" stop-color="#F0D781"/>
<stop offset="0.28" stop-color="#DFC676"/>
<stop offset="0.36" stop-color="#C7AE67"/>
<stop offset="0.43" stop-color="#A88F54"/>
<stop offset="0.5" stop-color="#836A3C"/>
<stop offset="0.57" stop-color="#573E21"/>
<stop offset="0.58" stop-color="#4F361C"/>
<stop offset="0.61" stop-color="#5B4223"/>
<stop offset="0.65" stop-color="#7A6137"/>
<stop offset="0.71" stop-color="#AC9356"/>
<stop offset="0.78" stop-color="#F1D881"/>
<stop offset="0.79" stop-color="#FDE489"/>
<stop offset="0.93" stop-color="#876E3F"/>
<stop offset="1" stop-color="#4F361C"/>
</linearGradient>
<linearGradient id="paint8_linear_4_365" x1="59.9353" y1="499.762" x2="59.9353" y2="57.639" gradientUnits="userSpaceOnUse">
<stop stop-color="#4F361C"/>
<stop offset="0.25" stop-color="#745124"/>
<stop offset="0.58" stop-color="#E4AC52"/>
<stop offset="0.88" stop-color="#745124"/>
<stop offset="1" stop-color="#E4AC52"/>
</linearGradient>
<linearGradient id="paint9_linear_4_365" x1="60.7082" y1="494.027" x2="60.7082" y2="65.46" gradientUnits="userSpaceOnUse">
<stop offset="0.25" stop-color="#4B331A"/>
<stop offset="0.5" stop-color="#A57531"/>
<stop offset="0.75" stop-color="#4F361C"/>
</linearGradient>
<linearGradient id="paint10_linear_4_365" x1="82.0191" y1="499.762" x2="82.0191" y2="64.782" gradientUnits="userSpaceOnUse">
<stop stop-color="#4F361C"/>
<stop offset="0.07" stop-color="#765D34"/>
<stop offset="0.18" stop-color="#A68D52"/>
<stop offset="0.27" stop-color="#CCB36A"/>
<stop offset="0.36" stop-color="#E7CE7B"/>
<stop offset="0.44" stop-color="#F7DE85"/>
<stop offset="0.5" stop-color="#FDE489"/>
<stop offset="0.6" stop-color="#FAE187"/>
<stop offset="0.67" stop-color="#F0D781"/>
<stop offset="0.74" stop-color="#DFC676"/>
<stop offset="0.81" stop-color="#C7AE67"/>
<stop offset="0.87" stop-color="#A88F54"/>
<stop offset="0.93" stop-color="#836A3C"/>
<stop offset="0.99" stop-color="#573E21"/>
<stop offset="1" stop-color="#4F361C"/>
</linearGradient>
<linearGradient id="paint11_linear_4_365" x1="197.047" y1="55.7103" x2="197.047" y2="7.37935" gradientUnits="userSpaceOnUse">
<stop stop-color="#4F361C"/>
<stop offset="0.14" stop-color="#5B3A1F"/>
<stop offset="0.41" stop-color="#6E4123"/>
<stop offset="0.6" stop-color="#754324"/>
<stop offset="1" stop-color="#4F361C"/>
</linearGradient>
<linearGradient id="paint12_linear_4_365" x1="196.786" y1="7.53935" x2="196.786" y2="494.548" gradientUnits="userSpaceOnUse">
<stop offset="0.06" stop-color="#4F361C"/>
<stop offset="0.22" stop-color="#A57531"/>
<stop offset="0.25" stop-color="#AD7D36"/>
<stop offset="0.29" stop-color="#C39545"/>
<stop offset="0.35" stop-color="#E7BA5C"/>
<stop offset="0.38" stop-color="#FBCF69"/>
<stop offset="0.53" stop-color="#FBCF69"/>
<stop offset="0.74" stop-color="#E4AC52"/>
<stop offset="0.75" stop-color="#D29E4B"/>
<stop offset="0.78" stop-color="#A3793B"/>
<stop offset="0.81" stop-color="#7F5C2D"/>
<stop offset="0.83" stop-color="#644724"/>
<stop offset="0.86" stop-color="#553A1E"/>
<stop offset="0.88" stop-color="#4F361C"/>
<stop offset="1" stop-color="#734122"/>
</linearGradient>
<linearGradient id="paint13_linear_4_365" x1="274.464" y1="499.761" x2="274.464" y2="21.664" gradientUnits="userSpaceOnUse">
<stop stop-color="#745124"/>
<stop offset="0.25" stop-color="#745124"/>
<stop offset="0.5" stop-color="#E4AC52"/>
<stop offset="0.75" stop-color="#745124"/>
<stop offset="1" stop-color="#E4AC52"/>
</linearGradient>
<linearGradient id="paint14_linear_4_365" x1="275.766" y1="494.026" x2="275.766" y2="27.92" gradientUnits="userSpaceOnUse">
<stop offset="0.13" stop-color="#4F361C"/>
<stop offset="0.67" stop-color="#E4AC52"/>
<stop offset="0.9" stop-color="#4F361C"/>
</linearGradient>
<linearGradient id="paint15_linear_4_365" x1="257.945" y1="500.178" x2="257.945" y2="21.0381" gradientUnits="userSpaceOnUse">
<stop stop-color="#FDE489"/>
<stop offset="0.11" stop-color="#FAE187"/>
<stop offset="0.2" stop-color="#F0D781"/>
<stop offset="0.28" stop-color="#DFC676"/>
<stop offset="0.36" stop-color="#C7AE67"/>
<stop offset="0.43" stop-color="#A88F54"/>
<stop offset="0.5" stop-color="#836A3C"/>
<stop offset="0.57" stop-color="#573E21"/>
<stop offset="0.58" stop-color="#4F361C"/>
<stop offset="0.61" stop-color="#5B4223"/>
<stop offset="0.65" stop-color="#7A6137"/>
<stop offset="0.71" stop-color="#AC9356"/>
<stop offset="0.78" stop-color="#F1D881"/>
<stop offset="0.79" stop-color="#FDE489"/>
<stop offset="0.93" stop-color="#876E3F"/>
<stop offset="1" stop-color="#4F361C"/>
</linearGradient>
<linearGradient id="paint16_linear_4_365" x1="334.096" y1="499.761" x2="334.096" y2="57.586" gradientUnits="userSpaceOnUse">
<stop stop-color="#4F361C"/>
<stop offset="0.25" stop-color="#745124"/>
<stop offset="0.58" stop-color="#E4AC52"/>
<stop offset="0.88" stop-color="#745124"/>
<stop offset="1" stop-color="#E4AC52"/>
</linearGradient>
<linearGradient id="paint17_linear_4_365" x1="333.125" y1="494.026" x2="333.125" y2="65.459" gradientUnits="userSpaceOnUse">
<stop offset="0.25" stop-color="#4B331A"/>
<stop offset="0.5" stop-color="#A57531"/>
<stop offset="0.75" stop-color="#4F361C"/>
</linearGradient>
<linearGradient id="paint18_linear_4_365" x1="312.074" y1="499.761" x2="312.074" y2="64.781" gradientUnits="userSpaceOnUse">
<stop stop-color="#4F361C"/>
<stop offset="0.07" stop-color="#765D34"/>
<stop offset="0.18" stop-color="#A68D52"/>
<stop offset="0.27" stop-color="#CCB36A"/>
<stop offset="0.36" stop-color="#E7CE7B"/>
<stop offset="0.44" stop-color="#F7DE85"/>
<stop offset="0.5" stop-color="#FDE489"/>
<stop offset="0.6" stop-color="#FAE187"/>
<stop offset="0.67" stop-color="#F0D781"/>
<stop offset="0.74" stop-color="#DFC676"/>
<stop offset="0.81" stop-color="#C7AE67"/>
<stop offset="0.87" stop-color="#A88F54"/>
<stop offset="0.93" stop-color="#836A3C"/>
<stop offset="0.99" stop-color="#573E21"/>
<stop offset="1" stop-color="#4F361C"/>
</linearGradient>
</defs>
</svg>
