<svg width="245" height="371" viewBox="0 0 245 371" fill="none" xmlns="http://www.w3.org/2000/svg">
<path d="M174.5 347.057C169.6 347.157 165.8 351.157 165.9 356.057C166 360.957 170 364.757 174.9 364.657H175.1C179.9 364.557 183.7 360.657 183.6 355.957V355.657C183.4 350.757 179.4 346.957 174.5 347.057ZM83.1999 346.357C78.9999 346.357 75.3999 349.457 74.5999 353.557H91.6999C90.8999 349.457 87.3999 346.357 83.1999 346.357ZM50.7999 346.357C45.3999 346.357 41.0999 350.757 41.0999 356.157C41.0999 361.557 45.4998 365.857 50.8998 365.857C56.2998 365.857 60.5999 361.457 60.5999 356.157V356.057C60.5999 350.657 56.1999 346.357 50.7999 346.357Z" fill="#091C3E"/>
<path d="M206.5 333.457H199.3V341.557H193.8V348.057H199.3V363.257C199.3 367.057 202 370.157 206.9 370.157H214.7V363.657H209.3C207.6 363.657 206.6 362.957 206.6 361.457V348.057H214.7V341.557H206.6L206.5 333.457ZM129.1 370.157H156.2V363.557H136.4V353.957H155.7V347.557H136.4V338.057H156.2V331.457H129.1V370.157ZM183.4 344.257C180.9 342.057 177.6 340.957 174.3 340.957C166 341.357 159.6 348.357 159.9 356.657C160.2 364.157 166.1 370.357 173.6 370.957H174.2C177.5 370.957 180.8 369.757 183.3 367.657V370.257H190.5V341.657L183.3 341.757L183.4 344.257ZM183.5 355.857V355.957C183.6 360.757 179.8 364.657 175 364.657H174.8C169.9 364.757 165.9 360.857 165.8 356.057C165.7 351.157 169.6 347.157 174.4 347.057C179.3 346.957 183.3 350.857 183.4 355.657L183.5 355.857ZM235.7 353.357L229.5 352.057C226 351.357 224.8 350.757 224.8 349.457C224.8 347.657 226.6 346.657 229.7 346.657C233.1 346.657 235.7 347.557 236.3 350.757H243.5C243.1 344.757 238.8 340.857 230.1 340.857C222.6 340.857 217.3 343.957 217.3 349.957C217.3 354.157 220.2 356.857 226.5 358.157L233.4 359.757C236.1 360.257 236.9 361.057 236.9 362.157C236.9 363.957 234.9 365.057 231.6 365.057C227.4 365.057 225.1 364.157 224.1 360.957H216.9C217.8 366.957 222.2 370.857 231.2 370.857C239.5 370.857 244.2 366.857 244.2 361.357C244.3 357.557 241.5 354.657 235.7 353.357Z" fill="#06C167"/>
<path d="M106.6 345.457H106.4V342.057H101.1V370.257H106.7V354.257C106.7 349.857 109.3 347.057 112.9 347.057H115.2V341.857H113.2C110.6 341.757 108 343.157 106.6 345.457ZM97.3 356.157C97.3 347.757 91.3 341.457 83.2 341.457C75.2 341.557 68.7 348.057 68.8 356.057C68.7 364.057 75.1 370.757 83.2 370.857H83.8C88.6 370.957 93.1 368.757 96 364.857L92 361.957C90.1 364.557 87.1 366.057 83.9 366.057C79.2 366.057 75.3 362.657 74.6 357.957H97.4L97.3 356.157ZM74.6 353.557C75.4 349.357 79 346.357 83.2 346.357C87.4 346.457 91 349.457 91.7 353.557H74.6ZM24.8 355.357C24.8 361.557 20.7 365.657 15.3 365.657C9.9 365.657 5.9 361.657 5.9 355.457V331.557H0V355.757C0 364.857 6.4 370.957 14.6 370.957C18.5 370.957 22.1 369.457 24.8 366.657V370.357H30.5V331.657H24.7L24.8 355.357ZM52.7 341.457H51.2C47.5 341.457 43.9 342.957 41.2 345.657V331.557H35.7V370.157H41.2V366.657C43.8 369.357 47.5 370.857 51.2 370.857C59.3 371.257 66.2 364.957 66.6 356.857C67.1 348.757 60.8 341.857 52.7 341.457ZM60.6 356.157C60.6 361.557 56.3 365.857 50.9 365.857C45.5 365.857 41.1 361.557 41.1 356.157C41.1 350.757 45.4 346.357 50.8 346.357C56.2 346.357 60.6 350.657 60.6 356.157ZM149.4 288.657V267.857H140.1L140 289.357C139.8 293.957 135.9 297.457 131.3 297.257C127 297.057 123.6 293.657 123.4 289.357V267.857H114.1V288.657C114.1 299.657 121.2 305.457 131.7 305.457C142.3 305.457 149.4 299.757 149.4 288.657ZM187.2 297.257H168.8V289.757H183.3V282.357H168.8V275.657H186.7V267.857H159.5V304.957H187.2V297.257ZM91.2 275.757C95 275.657 98.9 276.457 102.3 278.057L104.6 269.957C100.3 268.057 95.6 267.157 90.9 267.357C78.3 267.357 69.7 275.757 69.7 286.357C69.7 296.957 78.2 305.457 90.7 305.457C99.1 305.457 103.7 302.457 105.6 300.857V285.757L97 286.857V296.357C95.2 297.157 93.2 297.557 91.2 297.557C84.6 297.557 79.3 292.957 79.3 286.357C79.3 279.757 84.2 275.757 91.2 275.757ZM225.9 304.957V267.857H220.6L206.9 275.357L208.7 283.157L216.9 278.857V304.957H225.9ZM18.2 267.857V304.957H45.2V297.257H27.6V267.857H18.2ZM52 267.857H61.3V304.957H52V267.857Z" fill="white"/>
<path d="M193.7 120.757C182.8 142.557 170.1 163.357 155.6 182.957C135.3 184.457 115 184.657 94.7 183.457L69.3999 224.057C108.2 227.757 143.4 228.657 179.5 223.057C205.4 191.257 225.4 158.557 243.2 121.057C229.4 88.7571 210.5 59.2571 189.6 31.6571L164.4 71.9571C175.3 87.3571 185.1 103.757 193.7 120.757ZM80 154.657C69.1 139.057 59.3 122.757 50.5 105.857C61.3 84.0571 74.1 63.2571 88.7 43.6571C109 42.1571 129.3 41.9571 149.6 43.1571L175 2.55707C138.4 -1.14293 101.5 -0.842933 64.8999 3.55707C39.3999 34.7571 18 69.0571 1.19995 105.757C15.3 137.957 33 166.157 54.7999 194.957L80 154.657Z" fill="#CDFB0A"/>
<path d="M122.1 146.057C140.2 146.057 154.9 131.357 154.9 113.257C154.8 95.1571 140.2 80.4571 122.1 80.4571C104 80.4571 89.3 95.1571 89.3 113.257C89.3 131.357 104 146.057 122.1 146.057Z" fill="white"/>
</svg>
