<svg width="2683" height="3421" viewBox="0 0 2683 3421" fill="none" xmlns="http://www.w3.org/2000/svg">
<path fill-rule="evenodd" clip-rule="evenodd" d="M717.065 652.172C1103.46 438.597 1499.82 410.977 1865.29 510.62C1880.99 385.774 1889.89 276.897 1959.16 126.727C1867.36 193.454 1808.51 269.066 1740.98 350.78L1718.22 2.56087L1425.07 328.267L1224.41 0.759766L1101 367.024L742.247 113.808L802.622 466.07C720.265 397.714 628.392 329.354 536.218 291.312C607.031 384.611 675.941 513.511 717.065 652.172Z" fill="#38003D" stroke="#38003D" stroke-width="0.216566" stroke-linejoin="round"/>
<path fill-rule="evenodd" clip-rule="evenodd" d="M2212.15 799.768C2109.93 714.849 2007.23 640.722 1781.59 585.211C1802 629.849 1818.9 686.468 1818.69 745.48C1760.45 683.438 1689.8 606.43 1603.47 560.698C1318.38 523.362 1025.18 594.889 795.503 710.589C892.883 721.897 969.613 797.681 995.49 881.327C720.453 689.566 562.543 966.077 721.809 1241.47C550.677 1159.87 542.699 961.039 594.848 830.328C466.368 927.857 270.013 1115.93 147.65 1370.69L304.704 1392.85C114.899 1616.1 19.3093 1937.7 0.760498 2126.73L256.302 2043.92C175.396 2336.9 240.175 2792.93 343.374 2959.42C502.862 2833.97 630.787 2676.99 763.16 2477.76C847.068 2742.77 831.977 3018.47 766.702 3299.6C1139.42 3510.52 1603.3 3425.05 1907.27 3195.95C1920.21 3250.22 1929.03 3275.67 1954.39 3393.62C2323.29 3138.14 2448.43 2825.58 2484.25 2522.54L2604.24 2655.12C2764.87 2136.41 2669.19 1714.89 2383.82 1306.59L2372.03 1401.82C2338.88 1360.26 2284.59 1309.67 2259.29 1277.89C2255.33 1272.91 2256.31 1270.09 2253.71 1266.04C2267.22 1257.81 2292.21 1246.1 2298.78 1228.31C2296.06 1203.55 2267.36 1139.7 2246.15 1127.81C2193.29 1132.77 2150.88 1178.99 2150.53 1195.93C2123.05 1169.98 2097.1 1141.27 2017 1111.73C2052.94 1148.1 2087.47 1203.92 2112.84 1253.49C2165.54 1292.14 2253.73 1366.23 2319.49 1433.77L2306.82 1446.55C2234.7 1390.02 2041.52 1394.83 1935.24 1448.47C1883.5 1386.48 1823.58 1317.63 1739.65 1241.68C1719.23 1206.77 1717.34 1144.37 1782.39 1090.42C1710.55 1096.82 1680.65 1127.89 1646.81 1156.64C1596.53 1118.72 1530.76 1079.32 1424.12 1049.01C1340.56 1065.97 1239.75 1119.51 1200.9 1166.43C1298.4 1218.57 1328.16 1234.32 1387.35 1238.49C1474.22 1244.6 1549.8 1224.89 1605.3 1260.4C1674.18 1321.61 1803.21 1436.18 1821.52 1488.23C1710 1424.33 1542.99 1458.11 1357.32 1448.43C1181.76 1427.43 1085.02 1297.54 1083.19 1192.94L958.413 1173.26C1028.6 1076.91 1117.46 1034.04 1183.06 1011.07L1114.56 954.373C1224.28 860.037 1394.93 784.397 1568.61 769.358C1688.99 828.89 1792.15 894.086 1862.89 952.412C1894.87 899.012 1899.53 840.97 1903.47 802.948C2040.71 866.122 2193.97 974.395 2306.07 1088.43C2261.12 1006.44 2227.04 911.831 2212.15 799.768ZM1675.92 2084.2C1623.26 1983.21 1571.71 1868.88 1511.24 1772.75C1628.14 1689.01 1738.76 1602.21 1928.28 1553.74C1968.31 1586.96 2027.22 1626.82 2111.26 1657.38L2111.15 1857C1991.96 1938.64 1872.85 2071.68 1675.92 2084.2ZM2072.8 2047.5L2217.14 2047.03C2241.57 2070 2292.51 2147.93 2296.16 2208.65C2284.81 2294.78 2218.01 2453.14 2100.6 2513.59C2104.31 2440.27 2095.89 2345.34 2081.15 2292.5C2014.15 2367.94 1905.08 2401.89 1848.87 2414.38C1825.5 2352.08 1787.17 2283.27 1749.8 2226.91C1850.34 2206.05 1977.56 2132.24 2072.8 2047.5ZM2354.48 1561.71C2449.52 1763.1 2429.07 1956.21 2362.37 2055.17C2329.88 1980.84 2267.51 1906.44 2214.58 1859.61L2216.75 1664.06C2276.88 1631.69 2317.88 1597.73 2354.48 1561.71Z" fill="#38003D" stroke="#38003D" stroke-width="0.216566" stroke-linejoin="round"/>
</svg>
