<svg width="337" height="334" viewBox="0 0 337 334" fill="none" xmlns="http://www.w3.org/2000/svg">
<path fill-rule="evenodd" clip-rule="evenodd" d="M315.4 195.056C314 176.556 312.6 158.156 311.2 139.656C311.4 139.456 311.6 139.356 311.8 139.156C310.8 131.456 309.8 123.756 308.7 115.856C308 110.556 307.2 105.356 306.4 100.256C322.5 102.956 327.8 109.256 327.8 109.256C319.2 90.2555 306.9 75.4555 293.9 65.0555C282.2 41.1555 269.3 30.0555 269.3 30.0555C270.4 35.3555 269.4 41.2555 267.7 47.5555C259.8 43.8555 250.7 40.1555 240.4 36.8555C229.8 33.4555 219.9 31.1555 211.1 29.5555C206.5 27.3555 201.3 25.1555 195.6 23.0555C188.5 20.5555 181.8 18.6555 175.9 17.4555C175 17.1555 174.1 16.8555 173.2 16.6555C188.6 3.75555 203.4 0.055546 203.4 0.055546C178.8 -0.544454 157.2 3.75555 138.7 11.0555C111.6 8.55555 94.3 13.5555 94.3 13.5555C98.6 16.6555 101.7 22.1555 105.4 28.2555C86.1 41.2555 74.9 55.0555 71.7 59.1555H71.6C68.2 59.4555 64.4 59.8555 60.5 60.5555C58.2 60.9555 56 61.4555 53.9 62.0555C51.9 62.4555 49.7 62.8555 47.6 63.3555C55.6 43.7555 64.8 32.6555 64.8 32.6555C64.8 32.6555 12.4 69.4555 2.59999 135.756C2.59999 135.756 2.89999 134.956 3.59999 133.356C3.49999 133.956 3.5 134.456 3.5 135.056C6.2 129.256 9.9 122.756 14.7 115.856C17.2 112.356 19.6 109.156 22 106.356C24.4 111.256 26.8 115.456 28.9 118.856L33.8 127.156C32.3 129.356 30.9 131.856 29.5 134.456C27.7 137.856 26.1 141.256 24.7 144.356C21 151.656 18.1 158.856 16 165.756C3.7 170.656 0 174.956 0 174.956C1.8 181.756 6.19999 187.856 11.1 193.956C9.29999 222.856 19.1 241.856 19.1 241.856C19.1 241.756 19.1 241.756 19.1 241.656V241.956C20.8 236.556 22.9 230.756 25.5 224.656C27.1 220.756 28.9 217.056 30.6 213.556C35.3 217.056 40 220.456 44.9 223.856C50.2 227.556 55.3 231.256 60.5 234.656L62.5 237.556C65 244.456 70.8 259.156 80.1 275.056C68.4 279.356 56.1 281.156 45 278.756C45 278.756 57.9 295.356 98.6 302.056C108.9 314.656 121.4 324.556 136.1 329.256C137.2 329.556 138.2 329.956 139.3 330.156C139.3 330.156 139.2 330.056 139.1 329.856C138 327.356 137 324.556 136.2 321.356C134.7 315.556 134.3 310.256 134.3 305.956C139.4 305.756 144.5 305.656 149.8 305.656C157.3 305.556 164.6 305.656 171.7 305.856C173.2 307.156 174.9 308.456 176.6 309.856C178.7 311.456 180.7 312.856 182.6 314.056C186.2 316.756 190.3 319.456 194.7 321.756C177.5 332.156 166.4 333.456 166.4 333.456C241 335.256 285.4 286.756 285.4 286.756C273.1 293.556 258.3 299.056 244.1 302.056C245.1 297.756 245.6 293.656 245.8 289.856C246.3 285.856 246.6 280.356 246.3 272.956L246.4 273.356C257.6 269.456 269.8 264.256 282.4 257.156C285.6 255.356 288.7 253.556 291.7 251.656C296.2 254.756 300.4 258.856 304.5 264.656C304.5 264.656 312.5 253.656 315 228.456C333.5 203.256 336.6 178.156 336.6 178.156C331.7 185.956 324.5 191.356 315.4 195.056ZM147.9 53.1555C150.6 46.3555 153.5 40.4555 156.4 35.4555C189.1 31.2555 212.6 31.8555 212.6 31.8555L215.4 33.7555C230.8 44.5555 244.6 56.7555 256.3 70.0555C252.7 75.9555 248.7 81.5555 244.9 86.4555C242.1 89.7555 239.1 93.2555 235.9 96.6555C233.8 98.8555 231.7 100.956 229.7 103.056C220.4 105.556 210.9 108.156 201.2 111.056C189.8 114.456 178.7 117.956 168 121.456C165.4 118.056 163 114.956 160.9 112.056C157.4 106.856 153.9 101.256 150.4 95.2555C147 89.4555 144 83.8555 141.3 78.4555C141.1 77.9555 141 77.5555 140.9 77.0555C142.3 70.1555 144.4 62.0555 147.9 53.1555ZM39.5 86.5555C45.3 81.1555 52 75.2555 59.7 69.1555L68.6 62.3555C69 62.0555 69.4 61.7555 69.8 61.4555L72.9 59.3555L91.9 51.2555C99.1 48.5555 106.3 46.3555 113.4 44.1555C115.2 47.2555 116.5 49.6555 118.3 52.7555C127.5 67.4555 138 77.9555 138 77.9555C138.5 75.6555 135 94.6555 133.4 107.656C132.2 117.156 131.4 126.156 130.8 134.756C114.3 141.356 97.9 148.056 81.5 154.656C78.2 155.056 74.8 155.456 71.4 155.856C66.4 156.356 61.3 156.956 56.2 157.556C49.5 158.156 43.6 159.056 38.3 160.256C35.2 141.256 34.6 127.056 34.6 127.056C34.6 111.756 36.4 98.1555 39.5 86.5555ZM34.5 127.056C34.4 127.056 34.3 127.156 34.3 127.256L34.2 126.656C34.4 126.956 34.5 127.056 34.5 127.056ZM101 264.556C88.4 255.556 75.1 245.456 61.9 234.056L61.1 232.256C61.4 232.456 61.6 232.556 61.6 232.556C54.3 219.856 49.4 205.956 45.2 192.156C50.8 185.656 57.3 178.756 64.7 171.756C70.4 166.456 76 161.656 81.3 157.356V157.256L91.6 161.356C97.8 163.956 102.6 165.656 106.2 166.856C111.9 168.756 120.2 171.656 131.2 175.556C132.4 191.956 134.6 206.056 136.7 216.456L140 234.856C137.2 237.556 121.2 252.856 101 264.556ZM244.7 271.656C244.6 271.356 244.6 271.156 244.6 271.156C234.1 285.856 224.3 296.956 215 305.556C200.7 306.256 188.3 305.556 180.3 304.856C180.3 304.856 180.3 304.856 180.2 304.856C178.2 304.656 176.5 304.456 175.1 304.356C174.2 304.156 173.4 304.056 172.5 303.756C171.8 303.556 171.1 303.356 170.4 303.056C170.5 303.056 170.6 303.056 170.7 303.056C170.6 303.056 155.4 296.956 134 284.856C135.1 275.856 136.5 266.556 138.1 257.056C139.4 249.456 140.8 242.156 142.2 234.956L163.8 196.756C164.7 195.456 165.5 194.056 166.4 192.756L170.4 187.656L178.6 189.456C181 190.056 183.2 190.656 185.4 191.156C198.5 194.556 211.6 197.956 224.9 201.356C227.5 202.056 230 202.656 230 202.656C231.2 202.956 232.4 203.256 233.5 203.556C237 207.556 240.8 211.756 245.1 215.956C248.4 219.156 251.7 222.156 254.8 224.856C259.8 229.556 264.2 233.256 268.1 236.256C254.5 258.956 244.7 271.256 244.7 271.256C245.2 271.156 245.7 271.056 246.1 270.956C246 271.056 245.8 271.156 245.7 271.156V271.256L244.7 271.656ZM286.7 202.456C278.1 203.656 269.6 204.056 261.9 203.956C254.6 203.756 246.8 202.956 238.6 201.556C237 201.256 235.5 200.956 234 200.656L233.7 199.956C227 193.356 220.2 186.456 213.4 179.156C206.4 171.756 199.9 164.356 193.7 157.156L193.1 154.656C202.1 142.056 210.3 131.056 216.6 122.656L230.8 105.556C238 103.956 245.6 102.356 253.7 101.056C261 99.8555 268 98.9555 274.7 98.2555C276 98.1555 277.3 98.1555 278.5 98.1555C298.2 125.756 309.3 148.456 309.4 148.456C309.5 147.056 309.5 145.656 309.5 144.256L309.9 149.156C302.5 169.156 294.6 187.356 286.7 202.456Z" fill="black"/>
</svg>
